<?xml version="1.0" encoding="UTF-8" standalone="no"?>
<svg
   xml:space="preserve"
   overflow="hidden"
   viewBox="0.5 -8.33 2556.5 1694.3299"
   version="1.1"
   id="svg1167"
   sodipodi:docname="experiments_em.svg"
   width="2556.5"
   height="1694.33"
   inkscape:version="1.2.2 (732a01da63, 2022-12-09)"
   xmlns:inkscape="http://www.inkscape.org/namespaces/inkscape"
   xmlns:sodipodi="http://sodipodi.sourceforge.net/DTD/sodipodi-0.dtd"
   xmlns="http://www.w3.org/2000/svg"
   xmlns:svg="http://www.w3.org/2000/svg"><sodipodi:namedview
     id="namedview1169"
     pagecolor="#ffffff"
     bordercolor="#000000"
     borderopacity="0.25"
     inkscape:showpageshadow="2"
     inkscape:pageopacity="0.0"
     inkscape:pagecheckerboard="0"
     inkscape:deskcolor="#d1d1d1"
     showgrid="false"
     inkscape:zoom="0.36228336"
     inkscape:cx="792.19757"
     inkscape:cy="1460.183"
     inkscape:window-width="3840"
     inkscape:window-height="2066"
     inkscape:window-x="-11"
     inkscape:window-y="-11"
     inkscape:window-maximized="1"
     inkscape:current-layer="svg1167" /><defs
     id="defs993"><clipPath
       id="clip0"><rect
         x="2520"
         y="223"
         width="2587"
         height="1863"
         id="rect987" /></clipPath><clipPath
       id="clip1"><rect
         x="2519"
         y="223"
         width="2586"
         height="1861"
         id="rect990" /></clipPath></defs><g
     clip-path="url(#clip0)"
     transform="translate(-2520,-223)"
     id="g1165"><g
       id="g997"><path
         d="m 3812.63,1021.53 127,92.01 m 0,0 -49,148 m 0,0 h -156.01 m 0,0 -48,-148 m 0,0 126.01,-92.01 m 0,-133.001 253,184.011 m 0,0 -96,297.01 m 0,0 h -313.01 m 0,0 -97,-297.01 m 0,0 253.01,-184.011 m 0,-133.004 380.01,276.005 m 0,0 -145.01,445.02 m 0,0 h -469.01 m 0,0 -145.01,-445.02 m 0,0 379.02,-276.005 m 0,-133.004 506.01,368.012 m 0,0 -193,594.017 m 0,0 h -625.03 m 0,0 -193,-594.017 m 0,0 505.02,-368.012 m 0,-133.005 632.02,459.015 m 0,0 -241.01,744.029 m 0,0 h -781.03 m 0,0 -242.01,-744.029 m 0,0 632.03,-459.015 m 0,-133.016 758.87,551.03 m 0,0 -289.86,891.97 m 0,0 h -938.03 m 0,0 -289.11,-891.97 m 0,0 758.13,-551.03"
         stroke="#000000"
         stroke-width="3.4375"
         stroke-linejoin="round"
         stroke-miterlimit="10"
         fill="none"
         id="path995" /></g><g
       id="g1001"><path
         d="M 3324,995.033 3813.12,382 4376,972.032 4102.13,1552.05 3394.11,1731 3324,995.033"
         stroke="#7030a0"
         stroke-width="10.3125"
         stroke-linecap="round"
         stroke-linejoin="round"
         stroke-miterlimit="10"
         fill="none"
         id="path999" /></g><g
       id="g1013"><path
         d="m 3823.33,382.313 c 0,6.075 -4.92,10.999 -11,10.999 -6.07,0 -11,-4.924 -11,-10.999 0,-6.075 4.93,-11 11,-11 6.08,0 11,4.925 11,11 z"
         stroke="#7030a0"
         stroke-width="3.4375"
         stroke-linejoin="round"
         stroke-miterlimit="10"
         fill="#7030a0"
         id="path1003" /><path
         d="m 4386.33,971.313 c 0,6.075 -4.92,10.999 -11,10.999 -6.07,0 -11,-4.924 -11,-10.999 0,-6.075 4.93,-11 11,-11 6.08,0 11,4.925 11,11 z"
         stroke="#7030a0"
         stroke-width="3.4375"
         stroke-linejoin="round"
         stroke-miterlimit="10"
         fill="#7030a0"
         id="path1005" /><path
         d="m 4113.33,1552.31 c 0,6.08 -4.92,11 -11,11 -6.07,0 -11,-4.92 -11,-11 0,-6.07 4.93,-11 11,-11 6.08,0 11,4.93 11,11 z"
         stroke="#7030a0"
         stroke-width="3.4375"
         stroke-linejoin="round"
         stroke-miterlimit="10"
         fill="#7030a0"
         id="path1007" /><path
         d="m 3405.33,1730.31 c 0,6.08 -4.92,11 -11,11 -6.07,0 -11,-4.92 -11,-11 0,-6.07 4.93,-11 11,-11 6.08,0 11,4.93 11,11 z"
         stroke="#7030a0"
         stroke-width="3.4375"
         stroke-linejoin="round"
         stroke-miterlimit="10"
         fill="#7030a0"
         id="path1009" /><path
         d="m 3334.33,995.313 c 0,6.077 -4.92,10.997 -11,10.997 -6.07,0 -11,-4.92 -11,-10.997 0,-6.075 4.93,-11 11,-11 6.08,0 11,4.925 11,11 z"
         stroke="#7030a0"
         stroke-width="3.4375"
         stroke-linejoin="round"
         stroke-miterlimit="10"
         fill="#7030a0"
         id="path1011" /></g><g
       id="g1017"><path
         d="M 3211,959.031 3813.12,389 4391,967.032 4097.13,1546.05 3406.11,1714 3211,959.031"
         stroke="#ff0000"
         stroke-width="10.3125"
         stroke-linecap="round"
         stroke-linejoin="round"
         stroke-miterlimit="10"
         fill="none"
         id="path1015" /></g><g
       id="g1029"><path
         d="m 3823.33,388.313 c 0,6.075 -4.92,10.999 -11,10.999 -6.07,0 -11,-4.924 -11,-10.999 0,-6.075 4.93,-11 11,-11 6.08,0 11,4.925 11,11 z"
         stroke="#ff0000"
         stroke-width="3.4375"
         stroke-linejoin="round"
         stroke-miterlimit="10"
         fill="#ff0000"
         id="path1019" /><path
         d="m 4401.33,966.313 c 0,6.075 -4.92,10.999 -11,10.999 -6.07,0 -11,-4.924 -11,-10.999 0,-6.075 4.93,-11 11,-11 6.08,0 11,4.925 11,11 z"
         stroke="#ff0000"
         stroke-width="3.4375"
         stroke-linejoin="round"
         stroke-miterlimit="10"
         fill="#ff0000"
         id="path1021" /><path
         d="m 4108.33,1545.31 c 0,6.08 -4.92,11 -11,11 -6.07,0 -11,-4.92 -11,-11 0,-6.07 4.93,-11 11,-11 6.08,0 11,4.93 11,11 z"
         stroke="#ff0000"
         stroke-width="3.4375"
         stroke-linejoin="round"
         stroke-miterlimit="10"
         fill="#ff0000"
         id="path1023" /><path
         d="m 3417.33,1713.31 c 0,6.08 -4.92,11 -11,11 -6.07,0 -11,-4.92 -11,-11 0,-6.07 4.93,-11 11,-11 6.08,0 11,4.93 11,11 z"
         stroke="#ff0000"
         stroke-width="3.4375"
         stroke-linejoin="round"
         stroke-miterlimit="10"
         fill="#ff0000"
         id="path1025" /><path
         d="m 3222.33,958.313 c 0,6.075 -4.92,10.999 -11,10.999 -6.07,0 -11,-4.924 -11,-10.999 0,-6.075 4.93,-11 11,-11 6.08,0 11,4.925 11,11 z"
         stroke="#ff0000"
         stroke-width="3.4375"
         stroke-linejoin="round"
         stroke-miterlimit="10"
         fill="#ff0000"
         id="path1027" /></g><g
       id="g1033"><path
         d="M 3162,943.031 3813.13,369 4427,955.031 4072.13,1511.05 3403.11,1719 3162,943.031"
         stroke="#00b050"
         stroke-width="10.3125"
         stroke-linecap="round"
         stroke-linejoin="round"
         stroke-miterlimit="10"
         fill="none"
         id="path1031" /></g><g
       id="g1045"><path
         d="m 3823.33,368.313 c 0,6.075 -4.92,10.999 -11,10.999 -6.07,0 -11,-4.924 -11,-10.999 0,-6.075 4.93,-11 11,-11 6.08,0 11,4.925 11,11 z"
         stroke="#00b050"
         stroke-width="3.4375"
         stroke-linejoin="round"
         stroke-miterlimit="10"
         fill="#00b050"
         id="path1035" /><path
         d="m 4438.33,954.313 c 0,6.075 -4.92,10.999 -11,10.999 -6.07,0 -11,-4.924 -11,-10.999 0,-6.075 4.93,-11 11,-11 6.08,0 11,4.925 11,11 z"
         stroke="#00b050"
         stroke-width="3.4375"
         stroke-linejoin="round"
         stroke-miterlimit="10"
         fill="#00b050"
         id="path1037" /><path
         d="m 4083.33,1511.31 c 0,6.08 -4.92,11 -11,11 -6.07,0 -11,-4.92 -11,-11 0,-6.07 4.93,-11 11,-11 6.08,0 11,4.93 11,11 z"
         stroke="#00b050"
         stroke-width="3.4375"
         stroke-linejoin="round"
         stroke-miterlimit="10"
         fill="#00b050"
         id="path1039" /><path
         d="m 3413.33,1718.31 c 0,6.08 -4.92,11 -11,11 -6.07,0 -11,-4.92 -11,-11 0,-6.07 4.93,-11 11,-11 6.08,0 11,4.93 11,11 z"
         stroke="#00b050"
         stroke-width="3.4375"
         stroke-linejoin="round"
         stroke-miterlimit="10"
         fill="#00b050"
         id="path1041" /><path
         d="m 3172.33,942.313 c 0,6.075 -4.92,10.999 -11,10.999 -6.07,0 -11,-4.924 -11,-10.999 0,-6.075 4.93,-11 11,-11 6.08,0 11,4.925 11,11 z"
         stroke="#00b050"
         stroke-width="3.4375"
         stroke-linejoin="round"
         stroke-miterlimit="10"
         fill="#00b050"
         id="path1043" /></g><g
       id="g1049"><path
         d="M 3257,974.032 3813.12,609 4179.14,1035.03 4211,1703 3453.11,1649.05 3257,974.032"
         stroke="#00b0f0"
         stroke-width="10.3125"
         stroke-linecap="round"
         stroke-linejoin="round"
         stroke-miterlimit="10"
         fill="none"
         id="path1047" /></g><g
       id="g1061"><path
         d="m 3823.33,609.313 c 0,6.075 -4.92,10.999 -11,10.999 -6.07,0 -11,-4.924 -11,-10.999 0,-6.075 4.93,-11 11,-11 6.08,0 11,4.925 11,11 z"
         stroke="#00b0f0"
         stroke-width="3.4375"
         stroke-linejoin="round"
         stroke-miterlimit="10"
         fill="#00b0f0"
         id="path1051" /><path
         d="m 4190.33,1035.31 c 0,6.08 -4.92,11 -11,11 -6.07,0 -11,-4.92 -11,-11 0,-6.07 4.93,-11 11,-11 6.08,0 11,4.93 11,11 z"
         stroke="#00b0f0"
         stroke-width="3.4375"
         stroke-linejoin="round"
         stroke-miterlimit="10"
         fill="#00b0f0"
         id="path1053" /><path
         d="m 4222.33,1702.31 c 0,6.08 -4.92,11 -11,11 -6.07,0 -11,-4.92 -11,-11 0,-6.07 4.93,-11 11,-11 6.08,0 11,4.93 11,11 z"
         stroke="#00b0f0"
         stroke-width="3.4375"
         stroke-linejoin="round"
         stroke-miterlimit="10"
         fill="#00b0f0"
         id="path1055" /><path
         d="m 3464.33,1649.31 c 0,6.08 -4.92,11 -11,11 -6.07,0 -11,-4.92 -11,-11 0,-6.07 4.93,-11 11,-11 6.08,0 11,4.93 11,11 z"
         stroke="#00b0f0"
         stroke-width="3.4375"
         stroke-linejoin="round"
         stroke-miterlimit="10"
         fill="#00b0f0"
         id="path1057" /><path
         d="m 3267.33,973.313 c 0,6.075 -4.92,10.999 -11,10.999 -6.07,0 -11,-4.924 -11,-10.999 0,-6.075 4.93,-11 11,-11 6.08,0 11,4.925 11,11 z"
         stroke="#00b0f0"
         stroke-width="3.4375"
         stroke-linejoin="round"
         stroke-miterlimit="10"
         fill="#00b0f0"
         id="path1059" /></g><g
       id="g1065"><text
         font-family="Calibri, Calibri_MSFontService, sans-serif"
         font-weight="400"
         font-size="64px"
         transform="translate(3715.35,1176)"
         id="text1063">0</text></g><g
       id="g1069"><text
         font-family="Calibri, Calibri_MSFontService, sans-serif"
         font-weight="400"
         font-size="64px"
         transform="translate(3682.83,1043)"
         id="text1067">10</text></g><g
       id="g1073"><text
         font-family="Calibri, Calibri_MSFontService, sans-serif"
         font-weight="400"
         font-size="64px"
         transform="translate(3682.83,910)"
         id="text1071">20</text></g><g
       id="g1077"><text
         font-family="Calibri, Calibri_MSFontService, sans-serif"
         font-weight="400"
         font-size="64px"
         transform="translate(3682.83,777)"
         id="text1075">30</text></g><g
       id="g1081"><text
         font-family="Calibri, Calibri_MSFontService, sans-serif"
         font-weight="400"
         font-size="64px"
         transform="translate(3682.83,644)"
         id="text1079">40</text></g><g
       id="g1085"><text
         font-family="Calibri, Calibri_MSFontService, sans-serif"
         font-weight="400"
         font-size="64px"
         transform="translate(3682.83,512)"
         id="text1083">50</text></g><g
       id="g1089"><text
         font-family="Calibri, Calibri_MSFontService, sans-serif"
         font-weight="400"
         font-size="64px"
         transform="translate(3682.83,379)"
         id="text1087">60</text></g><g
       clip-path="url(#clip1)"
       id="g1093"><text
         font-family="Calibri, Calibri_MSFontService, sans-serif"
         font-weight="400"
         font-size="83px"
         transform="translate(3641.1,294)"
         id="text1091">Pol-Spider</text></g><g
       id="g1097"><text
         font-family="Calibri, Calibri_MSFontService, sans-serif"
         font-weight="400"
         font-size="83px"
         transform="translate(4601.82,922)"
         id="text1095">Pol-Spidersyn</text></g><g
       id="g1101"><text
         font-family="Calibri, Calibri_MSFontService, sans-serif"
         font-weight="400"
         font-size="83px"
         transform="translate(4300.48,1850)"
         id="text1099">Pol-Spiderdk</text></g><g
       id="g1105"><text
         font-family="Calibri, Calibri_MSFontService, sans-serif"
         font-weight="400"
         font-size="83px"
         transform="translate(3010.65,1850)"
         id="text1103">Pol-Sparc</text></g><g
       id="g1109"><text
         font-family="Calibri, Calibri_MSFontService, sans-serif"
         font-weight="400"
         font-size="83px"
         transform="translate(2711.67,922)"
         id="text1107">Pol-Cosql</text></g><g
       id="g1113"><rect
         x="2523.5"
         y="1161.5"
         width="409"
         height="478"
         stroke="#7030a0"
         stroke-width="0"
         stroke-linejoin="round"
         stroke-miterlimit="10"
         fill="none"
         id="rect1111" /></g><g
       id="g1117"><path
         d="m 2546,1222 h 88"
         stroke="#7030a0"
         stroke-width="10.3125"
         stroke-linecap="round"
         stroke-linejoin="round"
         stroke-miterlimit="10"
         fill="none"
         fill-rule="evenodd"
         id="path1115" /></g><g
       id="g1121"><path
         d="m 2601,1221.5 c 0,5.81 -4.93,10.52 -11,10.52 -6.07,0 -11,-4.71 -11,-10.52 0,-5.81 4.93,-10.52 11,-10.52 6.07,0 11,4.71 11,10.52 z"
         stroke="#7030a0"
         stroke-width="3.4375"
         stroke-linejoin="round"
         stroke-miterlimit="10"
         fill="#7030a0"
         id="path1119" /></g><g
       id="g1125"><text
         font-family="Calibri, Calibri_MSFontService, sans-serif"
         font-weight="400"
         font-size="73px"
         transform="translate(2643.51,1243)"
         id="text1123">RAT-SQL</text></g><g
       id="g1129"><path
         d="m 2546,1341 h 88"
         stroke="#ff0000"
         stroke-width="10.3125"
         stroke-linecap="round"
         stroke-linejoin="round"
         stroke-miterlimit="10"
         fill="none"
         fill-rule="evenodd"
         id="path1127" /></g><g
       id="g1133"><path
         d="m 2601,1341 c 0,6.07 -4.93,11 -11,11 -6.07,0 -11,-4.93 -11,-11 0,-6.08 4.93,-11 11,-11 6.07,0 11,4.92 11,11 z"
         stroke="#ff0000"
         stroke-width="3.4375"
         stroke-linejoin="round"
         stroke-miterlimit="10"
         fill="#ff0000"
         id="path1131" /></g><g
       id="g1137"><text
         font-family="Calibri, Calibri_MSFontService, sans-serif"
         font-weight="400"
         font-size="73px"
         transform="translate(2643.51,1362)"
         id="text1135">BRIDGE</text></g><g
       id="g1141"><path
         d="m 2546,1460 h 88"
         stroke="#00b050"
         stroke-width="10.3125"
         stroke-linecap="round"
         stroke-linejoin="round"
         stroke-miterlimit="10"
         fill="none"
         fill-rule="evenodd"
         id="path1139" /></g><g
       id="g1145"><path
         d="m 2601,1460 c 0,6.07 -4.93,11 -11,11 -6.07,0 -11,-4.93 -11,-11 0,-6.08 4.93,-11 11,-11 6.07,0 11,4.92 11,11 z"
         stroke="#00b050"
         stroke-width="3.4375"
         stroke-linejoin="round"
         stroke-miterlimit="10"
         fill="#00b050"
         id="path1143" /></g><g
       id="g1149"><text
         font-family="Calibri, Calibri_MSFontService, sans-serif"
         font-weight="400"
         font-size="73px"
         transform="translate(2643.51,1482)"
         id="text1147">RESDSQL</text></g><g
       id="g1153"><path
         d="m 2546,1580 h 88"
         stroke="#00b0f0"
         stroke-width="10.3125"
         stroke-linecap="round"
         stroke-linejoin="round"
         stroke-miterlimit="10"
         fill="none"
         fill-rule="evenodd"
         id="path1151" /></g><g
       id="g1157"><path
         d="m 2601,1579 c 0,6.07 -4.93,11 -11,11 -6.07,0 -11,-4.93 -11,-11 0,-6.08 4.93,-11 11,-11 6.07,0 11,4.92 11,11 z"
         stroke="#00b0f0"
         stroke-width="3.4375"
         stroke-linejoin="round"
         stroke-miterlimit="10"
         fill="#00b0f0"
         id="path1155" /></g><g
       id="g1161"><text
         font-family="Calibri, Calibri_MSFontService, sans-serif"
         font-weight="400"
         font-size="73px"
         transform="translate(2643.51,1601)"
         id="text1159">C3</text></g><rect
       x="2520.5"
       y="224.5"
       width="2586"
       height="1861"
       stroke="#d9d9d9"
       stroke-width="0"
       stroke-linejoin="round"
       stroke-miterlimit="10"
       stroke-opacity="0"
       fill="none"
       id="rect1163" /></g></svg>
