<?xml version="1.0" encoding="UTF-8" standalone="no"?>
<svg
   xml:space="preserve"
   overflow="hidden"
   viewBox="0.5 0.5 2556.5 1650.5"
   version="1.1"
   id="svg1589"
   sodipodi:docname="experiments_ex.svg"
   width="2556.5"
   height="1650.5"
   inkscape:version="1.2.2 (732a01da63, 2022-12-09)"
   xmlns:inkscape="http://www.inkscape.org/namespaces/inkscape"
   xmlns:sodipodi="http://sodipodi.sourceforge.net/DTD/sodipodi-0.dtd"
   xmlns="http://www.w3.org/2000/svg"
   xmlns:svg="http://www.w3.org/2000/svg"><sodipodi:namedview
     id="namedview1591"
     pagecolor="#ffffff"
     bordercolor="#000000"
     borderopacity="0.25"
     inkscape:showpageshadow="2"
     inkscape:pageopacity="0.0"
     inkscape:pagecheckerboard="0"
     inkscape:deskcolor="#d1d1d1"
     showgrid="false"
     inkscape:zoom="0.44401404"
     inkscape:cx="2040.476"
     inkscape:cy="2065.25"
     inkscape:window-width="3840"
     inkscape:window-height="2066"
     inkscape:window-x="-11"
     inkscape:window-y="-11"
     inkscape:window-maximized="1"
     inkscape:current-layer="svg1589" /><defs
     id="defs1435"><clipPath
       id="clip0"><rect
         x="2498"
         y="2071"
         width="2590"
         height="2060"
         id="rect1432" /></clipPath></defs><g
     clip-path="url(#clip0)"
     transform="translate(-2500.2522,-2167.8438)"
     id="g1587"><g
       id="g1439"><path
         d="m 3792.62,3000.6 95.01,69 m 0,0 -36,112 m 0,0 h -118.01 m 0,0 -36,-112 m 0,0 95,-69 m 0,-100 190.01,138 m 0,0 -73,223.01 m 0,0 h -234.01 m 0,0 -73,-223.01 m 0,0 190,-138 m 0,-100.01 285.01,207.01 m 0,0 -109,335.01 m 0,0 h -352.01 m 0,0 -109,-335.01 m 0,0 285,-207.01 m 0,-100 380.02,276.01 m 0,0 -145.01,447.01 m 0,0 h -470.01 m 0,0 -145.01,-447.01 m 0,0 380.01,-276.01 m 0,-99 475.02,345.01 m 0,0 -182.01,558.02 m 0,0 h -586.02 m 0,0 -182,-558.02 m 0,0 475.01,-345.01 m 0,-100.01 570.02,414.02 m 0,0 -218,670.02 m 0,0 h -704.03 m 0,0 -218,-670.02 m 0,0 570.01,-414.02 m 0,-100 665.03,483.01 m 0,0 -254.01,781.03 m 0,0 h -822.03 m 0,0 -254.01,-781.03 m 0,0 665.02,-483.01 m 0,-100.08 759.88,552.09 m 0,0 -289.86,892.91 m 0,0 h -940.03 m 0,0 -290.11,-892.91 m 0,0 760.12,-552.09"
         stroke="#000000"
         stroke-width="3.4375"
         stroke-linejoin="round"
         stroke-miterlimit="10"
         fill="none"
         id="path1437" /></g><g
       id="g1443"><path
         d="M 3186,2903.1 3792.12,2410 4347,2920.1 4075.13,3490.11 3415.11,3620 3186,2903.1"
         stroke="#ff0000"
         stroke-width="13.75"
         stroke-linecap="round"
         stroke-linejoin="round"
         stroke-miterlimit="10"
         fill="none"
         id="path1441" /></g><g
       id="g1455"><path
         d="m 3803.72,2410.01 c 0,6.08 -4.92,11 -11,11 -6.07,0 -11,-4.92 -11,-11 0,-6.07 4.93,-11 11,-11 6.08,0 11,4.93 11,11 z"
         stroke="#ff0000"
         stroke-width="3.4375"
         stroke-linejoin="round"
         stroke-miterlimit="10"
         fill="#ff0000"
         id="path1445" /><path
         d="m 4358.72,2920.01 c 0,6.08 -4.92,11 -11,11 -6.07,0 -11,-4.92 -11,-11 0,-6.07 4.93,-11 11,-11 6.08,0 11,4.93 11,11 z"
         stroke="#ff0000"
         stroke-width="3.4375"
         stroke-linejoin="round"
         stroke-miterlimit="10"
         fill="#ff0000"
         id="path1447" /><path
         d="m 4086.72,3489.01 c 0,6.08 -4.92,11 -11,11 -6.07,0 -11,-4.92 -11,-11 0,-6.07 4.93,-11 11,-11 6.08,0 11,4.93 11,11 z"
         stroke="#ff0000"
         stroke-width="3.4375"
         stroke-linejoin="round"
         stroke-miterlimit="10"
         fill="#ff0000"
         id="path1449" /><path
         d="m 3426.72,3619.01 c 0,6.08 -4.92,11 -11,11 -6.07,0 -11,-4.92 -11,-11 0,-6.07 4.93,-11 11,-11 6.08,0 11,4.93 11,11 z"
         stroke="#ff0000"
         stroke-width="3.4375"
         stroke-linejoin="round"
         stroke-miterlimit="10"
         fill="#ff0000"
         id="path1451" /><path
         d="m 3196.72,2903.01 c 0,6.08 -4.92,11 -11,11 -6.07,0 -11,-4.92 -11,-11 0,-6.07 4.93,-11 11,-11 6.08,0 11,4.93 11,11 z"
         stroke="#ff0000"
         stroke-width="3.4375"
         stroke-linejoin="round"
         stroke-miterlimit="10"
         fill="#ff0000"
         id="path1453" /></g><g
       id="g1459"><path
         d="M 3173,2899.09 3792.12,2394 4385,2908.1 4071.13,3484.11 3398.11,3643 3173,2899.09"
         stroke="#00b050"
         stroke-width="13.75"
         stroke-linecap="round"
         stroke-linejoin="round"
         stroke-miterlimit="10"
         fill="none"
         id="path1457" /></g><g
       id="g1471"><path
         d="m 3803.72,2394.01 c 0,6.08 -4.92,11 -11,11 -6.07,0 -11,-4.92 -11,-11 0,-6.07 4.93,-11 11,-11 6.08,0 11,4.93 11,11 z"
         stroke="#00b050"
         stroke-width="3.4375"
         stroke-linejoin="round"
         stroke-miterlimit="10"
         fill="#00b050"
         id="path1461" /><path
         d="m 4396.72,2907.01 c 0,6.08 -4.92,11 -11,11 -6.07,0 -11,-4.92 -11,-11 0,-6.07 4.93,-11 11,-11 6.08,0 11,4.93 11,11 z"
         stroke="#00b050"
         stroke-width="3.4375"
         stroke-linejoin="round"
         stroke-miterlimit="10"
         fill="#00b050"
         id="path1463" /><path
         d="m 4082.72,3484.01 c 0,6.08 -4.92,11 -11,11 -6.07,0 -11,-4.92 -11,-11 0,-6.07 4.93,-11 11,-11 6.08,0 11,4.93 11,11 z"
         stroke="#00b050"
         stroke-width="3.4375"
         stroke-linejoin="round"
         stroke-miterlimit="10"
         fill="#00b050"
         id="path1465" /><path
         d="m 3409.72,3643.01 c 0,6.08 -4.92,11 -11,11 -6.07,0 -11,-4.92 -11,-11 0,-6.07 4.93,-11 11,-11 6.08,0 11,4.93 11,11 z"
         stroke="#00b050"
         stroke-width="3.4375"
         stroke-linejoin="round"
         stroke-miterlimit="10"
         fill="#00b050"
         id="path1467" /><path
         d="m 3184.72,2899.01 c 0,6.08 -4.92,11 -11,11 -6.07,0 -11,-4.92 -11,-11 0,-6.07 4.93,-11 11,-11 6.08,0 11,4.93 11,11 z"
         stroke="#00b050"
         stroke-width="3.4375"
         stroke-linejoin="round"
         stroke-miterlimit="10"
         fill="#00b050"
         id="path1469" /></g><g
       id="g1475"><path
         d="m 3089.5,2871.59 703.12,-560.09 521.88,619.1 -151.86,679.02 -798.03,80.88 -275.11,-818.91"
         stroke="#00b0f0"
         stroke-width="14.8958"
         stroke-linecap="round"
         stroke-linejoin="round"
         stroke-miterlimit="10"
         fill="none"
         id="path1473" /></g><g
       id="g1487"><path
         d="m 3803.72,2311.01 c 0,6.08 -4.92,11 -11,11 -6.07,0 -11,-4.92 -11,-11 0,-6.07 4.93,-11 11,-11 6.08,0 11,4.93 11,11 z"
         stroke="#00b0f0"
         stroke-width="3.4375"
         stroke-linejoin="round"
         stroke-miterlimit="10"
         fill="#00b0f0"
         id="path1477" /><path
         d="m 4325.72,2930.01 c 0,6.08 -4.92,11 -11,11 -6.07,0 -11,-4.92 -11,-11 0,-6.07 4.93,-11 11,-11 6.08,0 11,4.93 11,11 z"
         stroke="#00b0f0"
         stroke-width="3.4375"
         stroke-linejoin="round"
         stroke-miterlimit="10"
         fill="#00b0f0"
         id="path1479" /><path
         d="m 4173.72,3609.01 c 0,6.08 -4.92,11 -11,11 -6.07,0 -11,-4.92 -11,-11 0,-6.07 4.93,-11 11,-11 6.08,0 11,4.93 11,11 z"
         stroke="#00b0f0"
         stroke-width="3.4375"
         stroke-linejoin="round"
         stroke-miterlimit="10"
         fill="#00b0f0"
         id="path1481" /><path
         d="m 3375.72,3690.01 c 0,6.08 -4.92,11 -11,11 -6.07,0 -11,-4.92 -11,-11 0,-6.07 4.93,-11 11,-11 6.08,0 11,4.93 11,11 z"
         stroke="#00b0f0"
         stroke-width="3.4375"
         stroke-linejoin="round"
         stroke-miterlimit="10"
         fill="#00b0f0"
         id="path1483" /><path
         d="m 3100.72,2872.01 c 0,6.08 -4.92,11 -11,11 -6.07,0 -11,-4.92 -11,-11 0,-6.07 4.93,-11 11,-11 6.08,0 11,4.93 11,11 z"
         stroke="#00b0f0"
         stroke-width="3.4375"
         stroke-linejoin="round"
         stroke-miterlimit="10"
         fill="#00b0f0"
         id="path1485" /></g><g
       id="g1491"><text
         font-family="Calibri, Calibri_MSFontService, sans-serif"
         font-weight="400"
         font-size="64px"
         transform="translate(3695.05,3122)"
         id="text1489">0</text></g><g
       id="g1495"><text
         font-family="Calibri, Calibri_MSFontService, sans-serif"
         font-weight="400"
         font-size="64px"
         transform="translate(3662.54,3022)"
         id="text1493">10</text></g><g
       id="g1499"><text
         font-family="Calibri, Calibri_MSFontService, sans-serif"
         font-weight="400"
         font-size="64px"
         transform="translate(3662.54,2923)"
         id="text1497">20</text></g><g
       id="g1503"><text
         font-family="Calibri, Calibri_MSFontService, sans-serif"
         font-weight="400"
         font-size="64px"
         transform="translate(3662.54,2823)"
         id="text1501">30</text></g><g
       id="g1507"><text
         font-family="Calibri, Calibri_MSFontService, sans-serif"
         font-weight="400"
         font-size="64px"
         transform="translate(3662.54,2723)"
         id="text1505">40</text></g><g
       id="g1511"><text
         font-family="Calibri, Calibri_MSFontService, sans-serif"
         font-weight="400"
         font-size="64px"
         transform="translate(3662.54,2623)"
         id="text1509">50</text></g><g
       id="g1515"><text
         font-family="Calibri, Calibri_MSFontService, sans-serif"
         font-weight="400"
         font-size="64px"
         transform="translate(3662.54,2523)"
         id="text1513">60</text></g><g
       id="g1519"><text
         font-family="Calibri, Calibri_MSFontService, sans-serif"
         font-weight="400"
         font-size="64px"
         transform="translate(3662.54,2423)"
         id="text1517">70</text></g><g
       id="g1523"><text
         font-family="Calibri, Calibri_MSFontService, sans-serif"
         font-weight="400"
         font-size="64px"
         transform="translate(3662.54,2323)"
         id="text1521">80</text></g><g
       id="g1527"><text
         font-family="Calibri, Calibri_MSFontService, sans-serif"
         font-weight="400"
         font-size="83px"
         transform="translate(3620.8,2239)"
         id="text1525">Pol-Spider</text></g><g
       id="g1531"><text
         font-family="Calibri, Calibri_MSFontService, sans-serif"
         font-weight="400"
         font-size="83px"
         transform="translate(4582.81,2868)"
         id="text1529">Pol-Spidersyn</text></g><g
       id="g1535"><text
         font-family="Calibri, Calibri_MSFontService, sans-serif"
         font-weight="400"
         font-size="83px"
         transform="translate(4280.98,3797)"
         id="text1533">Pol-Spiderdk</text></g><g
       id="g1539"><text
         font-family="Calibri, Calibri_MSFontService, sans-serif"
         font-weight="400"
         font-size="83px"
         transform="translate(2989.55,3797)"
         id="text1537">Pol-Sparc</text></g><g
       id="g1543"><text
         font-family="Calibri, Calibri_MSFontService, sans-serif"
         font-weight="400"
         font-size="83px"
         transform="translate(2690.08,2868)"
         id="text1541">Pol-Cosql</text></g><g
       id="g1547"><rect
         x="2538.5"
         y="3129.5"
         width="409"
         height="419"
         stroke="#7030a0"
         stroke-width="0"
         stroke-linejoin="round"
         stroke-miterlimit="10"
         fill="none"
         id="rect1545" /></g><g
       id="g1551"><path
         d="m 2561,3199 h 88"
         stroke="#ff0000"
         stroke-width="13.75"
         stroke-linecap="round"
         stroke-linejoin="round"
         stroke-miterlimit="10"
         fill="none"
         fill-rule="evenodd"
         id="path1549" /></g><g
       id="g1555"><path
         d="m 2616,3199 c 0,6.07 -4.93,11 -11,11 -6.07,0 -11,-4.93 -11,-11 0,-6.08 4.93,-11 11,-11 6.07,0 11,4.92 11,11 z"
         stroke="#ff0000"
         stroke-width="3.4375"
         stroke-linejoin="round"
         stroke-miterlimit="10"
         fill="#ff0000"
         id="path1553" /></g><g
       id="g1559"><text
         font-family="Calibri, Calibri_MSFontService, sans-serif"
         font-weight="400"
         font-size="73px"
         transform="translate(2658.75,3221)"
         id="text1557">BRIDGE</text></g><g
       id="g1563"><path
         d="m 2561,3339 h 88"
         stroke="#00b050"
         stroke-width="13.75"
         stroke-linecap="round"
         stroke-linejoin="round"
         stroke-miterlimit="10"
         fill="none"
         fill-rule="evenodd"
         id="path1561" /></g><g
       id="g1567"><path
         d="m 2616,3339 c 0,6.07 -4.93,11 -11,11 -6.07,0 -11,-4.93 -11,-11 0,-6.08 4.93,-11 11,-11 6.07,0 11,4.92 11,11 z"
         stroke="#00b050"
         stroke-width="3.4375"
         stroke-linejoin="round"
         stroke-miterlimit="10"
         fill="#00b050"
         id="path1565" /></g><g
       id="g1571"><text
         font-family="Calibri, Calibri_MSFontService, sans-serif"
         font-weight="400"
         font-size="73px"
         transform="translate(2658.75,3360)"
         id="text1569">RESDSQL</text></g><g
       id="g1575"><path
         d="m 2561.5,3478.5 h 88"
         stroke="#00b0f0"
         stroke-width="14.8958"
         stroke-linecap="round"
         stroke-linejoin="round"
         stroke-miterlimit="10"
         fill="none"
         fill-rule="evenodd"
         id="path1573" /></g><g
       id="g1579"><path
         d="m 2616,3478 c 0,6.07 -4.93,11 -11,11 -6.07,0 -11,-4.93 -11,-11 0,-6.08 4.93,-11 11,-11 6.07,0 11,4.92 11,11 z"
         stroke="#00b0f0"
         stroke-width="3.4375"
         stroke-linejoin="round"
         stroke-miterlimit="10"
         fill="#00b0f0"
         id="path1577" /></g><g
       id="g1583"><text
         font-family="Calibri, Calibri_MSFontService, sans-serif"
         font-weight="400"
         font-size="73px"
         transform="translate(2658.75,3500)"
         id="text1581">C3</text></g><rect
       x="2498.5"
       y="2071.5"
       width="2589"
       height="2059"
       stroke="#d9d9d9"
       stroke-width="0"
       stroke-linejoin="round"
       stroke-miterlimit="10"
       fill="none"
       id="rect1585" /></g></svg>
