<svg xmlns="http://www.w3.org/2000/svg" xmlns:xlink="http://www.w3.org/1999/xlink" xml:space="preserve" overflow="hidden" viewBox="0.5 -8.33 5106.5 2094.33"><defs><clipPath id="clip0"><rect x="2520" y="223" width="2587" height="1863"/></clipPath><clipPath id="clip1"><rect x="2519" y="223" width="2586" height="1861"/></clipPath></defs><g clip-path="url(#clip0)" transform="translate(-2520 -223)"><g><path d="M3812.63 1021.53 3939.63 1113.54M3939.63 1113.54 3890.63 1261.54M3890.63 1261.54 3734.62 1261.54M3734.62 1261.54 3686.62 1113.54M3686.62 1113.54 3812.63 1021.53M3812.63 888.529 4065.63 1072.54M4065.63 1072.54 3969.63 1369.55M3969.63 1369.55 3656.62 1369.55M3656.62 1369.55 3559.62 1072.54M3559.62 1072.54 3812.63 888.529M3812.63 755.525 4192.64 1031.53M4192.64 1031.53 4047.63 1476.55M4047.63 1476.55 3578.62 1476.55M3578.62 1476.55 3433.61 1031.53M3433.61 1031.53 3812.63 755.525M3812.63 622.521 4318.64 990.533M4318.64 990.533 4125.64 1584.55M4125.64 1584.55 3500.61 1584.55M3500.61 1584.55 3307.61 990.533M3307.61 990.533 3812.63 622.521M3812.63 489.516 4444.65 948.531M4444.65 948.531 4203.64 1692.56M4203.64 1692.56 3422.61 1692.56M3422.61 1692.56 3180.6 948.531M3180.6 948.531 3812.63 489.516M3812.63 356.5 4571.5 907.53M4571.5 907.53 4281.64 1799.5M4281.64 1799.5 3343.61 1799.5M3343.61 1799.5 3054.5 907.53M3054.5 907.53 3812.63 356.5" stroke="#000000" stroke-width="3.4375" stroke-linejoin="round" stroke-miterlimit="10" fill="none"/></g><g><path d="M3324 995.033 3813.12 382 4376 972.032 4102.13 1552.05 3394.11 1731 3324 995.033" stroke="#7030A0" stroke-width="10.3125" stroke-linecap="round" stroke-linejoin="round" stroke-miterlimit="10" fill="none"/></g><g><path d="M3823.33 382.313C3823.33 388.388 3818.41 393.312 3812.33 393.312 3806.26 393.312 3801.33 388.388 3801.33 382.313 3801.33 376.238 3806.26 371.313 3812.33 371.313 3818.41 371.313 3823.33 376.238 3823.33 382.313Z" stroke="#7030A0" stroke-width="3.4375" stroke-linejoin="round" stroke-miterlimit="10" fill="#7030A0"/><path d="M4386.33 971.313C4386.33 977.388 4381.41 982.312 4375.33 982.312 4369.26 982.312 4364.33 977.388 4364.33 971.313 4364.33 965.238 4369.26 960.313 4375.33 960.313 4381.41 960.313 4386.33 965.238 4386.33 971.313Z" stroke="#7030A0" stroke-width="3.4375" stroke-linejoin="round" stroke-miterlimit="10" fill="#7030A0"/><path d="M4113.33 1552.31C4113.33 1558.39 4108.41 1563.31 4102.33 1563.31 4096.26 1563.31 4091.33 1558.39 4091.33 1552.31 4091.33 1546.24 4096.26 1541.31 4102.33 1541.31 4108.41 1541.31 4113.33 1546.24 4113.33 1552.31Z" stroke="#7030A0" stroke-width="3.4375" stroke-linejoin="round" stroke-miterlimit="10" fill="#7030A0"/><path d="M3405.33 1730.31C3405.33 1736.39 3400.41 1741.31 3394.33 1741.31 3388.26 1741.31 3383.33 1736.39 3383.33 1730.31 3383.33 1724.24 3388.26 1719.31 3394.33 1719.31 3400.41 1719.31 3405.33 1724.24 3405.33 1730.31Z" stroke="#7030A0" stroke-width="3.4375" stroke-linejoin="round" stroke-miterlimit="10" fill="#7030A0"/><path d="M3334.33 995.313C3334.33 1001.39 3329.41 1006.31 3323.33 1006.31 3317.26 1006.31 3312.33 1001.39 3312.33 995.313 3312.33 989.238 3317.26 984.313 3323.33 984.313 3329.41 984.313 3334.33 989.238 3334.33 995.313Z" stroke="#7030A0" stroke-width="3.4375" stroke-linejoin="round" stroke-miterlimit="10" fill="#7030A0"/></g><g><path d="M3211 959.031 3813.12 389 4391 967.032 4097.13 1546.05 3406.11 1714 3211 959.031" stroke="#FF0000" stroke-width="10.3125" stroke-linecap="round" stroke-linejoin="round" stroke-miterlimit="10" fill="none"/></g><g><path d="M3823.33 388.313C3823.33 394.388 3818.41 399.312 3812.33 399.312 3806.26 399.312 3801.33 394.388 3801.33 388.313 3801.33 382.238 3806.26 377.313 3812.33 377.313 3818.41 377.313 3823.33 382.238 3823.33 388.313Z" stroke="#FF0000" stroke-width="3.4375" stroke-linejoin="round" stroke-miterlimit="10" fill="#FF0000"/><path d="M4401.33 966.313C4401.33 972.388 4396.41 977.312 4390.33 977.312 4384.26 977.312 4379.33 972.388 4379.33 966.313 4379.33 960.238 4384.26 955.313 4390.33 955.313 4396.41 955.313 4401.33 960.238 4401.33 966.313Z" stroke="#FF0000" stroke-width="3.4375" stroke-linejoin="round" stroke-miterlimit="10" fill="#FF0000"/><path d="M4108.33 1545.31C4108.33 1551.39 4103.41 1556.31 4097.33 1556.31 4091.26 1556.31 4086.33 1551.39 4086.33 1545.31 4086.33 1539.24 4091.26 1534.31 4097.33 1534.31 4103.41 1534.31 4108.33 1539.24 4108.33 1545.31Z" stroke="#FF0000" stroke-width="3.4375" stroke-linejoin="round" stroke-miterlimit="10" fill="#FF0000"/><path d="M3417.33 1713.31C3417.33 1719.39 3412.41 1724.31 3406.33 1724.31 3400.26 1724.31 3395.33 1719.39 3395.33 1713.31 3395.33 1707.24 3400.26 1702.31 3406.33 1702.31 3412.41 1702.31 3417.33 1707.24 3417.33 1713.31Z" stroke="#FF0000" stroke-width="3.4375" stroke-linejoin="round" stroke-miterlimit="10" fill="#FF0000"/><path d="M3222.33 958.313C3222.33 964.388 3217.41 969.312 3211.33 969.312 3205.26 969.312 3200.33 964.388 3200.33 958.313 3200.33 952.238 3205.26 947.313 3211.33 947.313 3217.41 947.313 3222.33 952.238 3222.33 958.313Z" stroke="#FF0000" stroke-width="3.4375" stroke-linejoin="round" stroke-miterlimit="10" fill="#FF0000"/></g><g><path d="M3162 943.031 3813.13 369 4427 955.031 4072.13 1511.05 3403.11 1719 3162 943.031" stroke="#00B050" stroke-width="10.3125" stroke-linecap="round" stroke-linejoin="round" stroke-miterlimit="10" fill="none"/></g><g><path d="M3823.33 368.313C3823.33 374.388 3818.41 379.312 3812.33 379.312 3806.26 379.312 3801.33 374.388 3801.33 368.313 3801.33 362.238 3806.26 357.313 3812.33 357.313 3818.41 357.313 3823.33 362.238 3823.33 368.313Z" stroke="#00B050" stroke-width="3.4375" stroke-linejoin="round" stroke-miterlimit="10" fill="#00B050"/><path d="M4438.33 954.313C4438.33 960.388 4433.41 965.312 4427.33 965.312 4421.26 965.312 4416.33 960.388 4416.33 954.313 4416.33 948.238 4421.26 943.313 4427.33 943.313 4433.41 943.313 4438.33 948.238 4438.33 954.313Z" stroke="#00B050" stroke-width="3.4375" stroke-linejoin="round" stroke-miterlimit="10" fill="#00B050"/><path d="M4083.33 1511.31C4083.33 1517.39 4078.41 1522.31 4072.33 1522.31 4066.26 1522.31 4061.33 1517.39 4061.33 1511.31 4061.33 1505.24 4066.26 1500.31 4072.33 1500.31 4078.41 1500.31 4083.33 1505.24 4083.33 1511.31Z" stroke="#00B050" stroke-width="3.4375" stroke-linejoin="round" stroke-miterlimit="10" fill="#00B050"/><path d="M3413.33 1718.31C3413.33 1724.39 3408.41 1729.31 3402.33 1729.31 3396.26 1729.31 3391.33 1724.39 3391.33 1718.31 3391.33 1712.24 3396.26 1707.31 3402.33 1707.31 3408.41 1707.31 3413.33 1712.24 3413.33 1718.31Z" stroke="#00B050" stroke-width="3.4375" stroke-linejoin="round" stroke-miterlimit="10" fill="#00B050"/><path d="M3172.33 942.313C3172.33 948.388 3167.41 953.312 3161.33 953.312 3155.26 953.312 3150.33 948.388 3150.33 942.313 3150.33 936.238 3155.26 931.313 3161.33 931.313 3167.41 931.313 3172.33 936.238 3172.33 942.313Z" stroke="#00B050" stroke-width="3.4375" stroke-linejoin="round" stroke-miterlimit="10" fill="#00B050"/></g><g><path d="M3257 974.032 3813.12 609 4179.14 1035.03 4211 1703 3453.11 1649.05 3257 974.032" stroke="#00B0F0" stroke-width="10.3125" stroke-linecap="round" stroke-linejoin="round" stroke-miterlimit="10" fill="none"/></g><g><path d="M3823.33 609.313C3823.33 615.388 3818.41 620.312 3812.33 620.312 3806.26 620.312 3801.33 615.388 3801.33 609.313 3801.33 603.238 3806.26 598.313 3812.33 598.313 3818.41 598.313 3823.33 603.238 3823.33 609.313Z" stroke="#00B0F0" stroke-width="3.4375" stroke-linejoin="round" stroke-miterlimit="10" fill="#00B0F0"/><path d="M4190.33 1035.31C4190.33 1041.39 4185.41 1046.31 4179.33 1046.31 4173.26 1046.31 4168.33 1041.39 4168.33 1035.31 4168.33 1029.24 4173.26 1024.31 4179.33 1024.31 4185.41 1024.31 4190.33 1029.24 4190.33 1035.31Z" stroke="#00B0F0" stroke-width="3.4375" stroke-linejoin="round" stroke-miterlimit="10" fill="#00B0F0"/><path d="M4222.33 1702.31C4222.33 1708.39 4217.41 1713.31 4211.33 1713.31 4205.26 1713.31 4200.33 1708.39 4200.33 1702.31 4200.33 1696.24 4205.26 1691.31 4211.33 1691.31 4217.41 1691.31 4222.33 1696.24 4222.33 1702.31Z" stroke="#00B0F0" stroke-width="3.4375" stroke-linejoin="round" stroke-miterlimit="10" fill="#00B0F0"/><path d="M3464.33 1649.31C3464.33 1655.39 3459.41 1660.31 3453.33 1660.31 3447.26 1660.31 3442.33 1655.39 3442.33 1649.31 3442.33 1643.24 3447.26 1638.31 3453.33 1638.31 3459.41 1638.31 3464.33 1643.24 3464.33 1649.31Z" stroke="#00B0F0" stroke-width="3.4375" stroke-linejoin="round" stroke-miterlimit="10" fill="#00B0F0"/><path d="M3267.33 973.313C3267.33 979.388 3262.41 984.312 3256.33 984.312 3250.26 984.312 3245.33 979.388 3245.33 973.313 3245.33 967.238 3250.26 962.313 3256.33 962.313 3262.41 962.313 3267.33 967.238 3267.33 973.313Z" stroke="#00B0F0" stroke-width="3.4375" stroke-linejoin="round" stroke-miterlimit="10" fill="#00B0F0"/></g><g><text font-family="Calibri,Calibri_MSFontService,sans-serif" font-weight="400" font-size="64" transform="matrix(1 0 0 1 3715.35 1176)">0</text></g><g><text font-family="Calibri,Calibri_MSFontService,sans-serif" font-weight="400" font-size="64" transform="matrix(1 0 0 1 3682.83 1043)">10</text></g><g><text font-family="Calibri,Calibri_MSFontService,sans-serif" font-weight="400" font-size="64" transform="matrix(1 0 0 1 3682.83 910)">20</text></g><g><text font-family="Calibri,Calibri_MSFontService,sans-serif" font-weight="400" font-size="64" transform="matrix(1 0 0 1 3682.83 777)">30</text></g><g><text font-family="Calibri,Calibri_MSFontService,sans-serif" font-weight="400" font-size="64" transform="matrix(1 0 0 1 3682.83 644)">40</text></g><g><text font-family="Calibri,Calibri_MSFontService,sans-serif" font-weight="400" font-size="64" transform="matrix(1 0 0 1 3682.83 512)">50</text></g><g><text font-family="Calibri,Calibri_MSFontService,sans-serif" font-weight="400" font-size="64" transform="matrix(1 0 0 1 3682.83 379)">60</text></g><g clip-path="url(#clip1)"><text font-family="Calibri,Calibri_MSFontService,sans-serif" font-weight="400" font-size="83" transform="matrix(1 0 0 1 3641.1 294)">Pol-Spider</text></g><g><text font-family="Calibri,Calibri_MSFontService,sans-serif" font-weight="400" font-size="83" transform="matrix(1 0 0 1 4601.82 922)">Pol-Spidersyn</text></g><g><text font-family="Calibri,Calibri_MSFontService,sans-serif" font-weight="400" font-size="83" transform="matrix(1 0 0 1 4300.48 1850)">Pol-Spiderdk</text></g><g><text font-family="Calibri,Calibri_MSFontService,sans-serif" font-weight="400" font-size="83" transform="matrix(1 0 0 1 3010.65 1850)">Pol-Sparc</text></g><g><text font-family="Calibri,Calibri_MSFontService,sans-serif" font-weight="400" font-size="83" transform="matrix(1 0 0 1 2711.67 922)">Pol-Cosql</text></g><g><rect x="2523.5" y="1161.5" width="409" height="478" stroke="#7030A0" stroke-width="0" stroke-linejoin="round" stroke-miterlimit="10" fill="none"/></g><g><path d="M2546 1222 2634 1222" stroke="#7030A0" stroke-width="10.3125" stroke-linecap="round" stroke-linejoin="round" stroke-miterlimit="10" fill="none" fill-rule="evenodd"/></g><g><path d="M2601 1221.5C2601 1227.31 2596.07 1232.02 2590 1232.02 2583.93 1232.02 2579 1227.31 2579 1221.5 2579 1215.69 2583.93 1210.98 2590 1210.98 2596.07 1210.98 2601 1215.69 2601 1221.5Z" stroke="#7030A0" stroke-width="3.4375" stroke-linejoin="round" stroke-miterlimit="10" fill="#7030A0"/></g><g><text font-family="Calibri,Calibri_MSFontService,sans-serif" font-weight="400" font-size="73" transform="matrix(1 0 0 1 2643.51 1243)">RAT-SQL</text></g><g><path d="M2546 1341 2634 1341" stroke="#FF0000" stroke-width="10.3125" stroke-linecap="round" stroke-linejoin="round" stroke-miterlimit="10" fill="none" fill-rule="evenodd"/></g><g><path d="M2601 1341C2601 1347.07 2596.07 1352 2590 1352 2583.93 1352 2579 1347.07 2579 1341 2579 1334.92 2583.93 1330 2590 1330 2596.07 1330 2601 1334.92 2601 1341Z" stroke="#FF0000" stroke-width="3.4375" stroke-linejoin="round" stroke-miterlimit="10" fill="#FF0000"/></g><g><text font-family="Calibri,Calibri_MSFontService,sans-serif" font-weight="400" font-size="73" transform="matrix(1 0 0 1 2643.51 1362)">BRIDGE</text></g><g><path d="M2546 1460 2634 1460" stroke="#00B050" stroke-width="10.3125" stroke-linecap="round" stroke-linejoin="round" stroke-miterlimit="10" fill="none" fill-rule="evenodd"/></g><g><path d="M2601 1460C2601 1466.07 2596.07 1471 2590 1471 2583.93 1471 2579 1466.07 2579 1460 2579 1453.92 2583.93 1449 2590 1449 2596.07 1449 2601 1453.92 2601 1460Z" stroke="#00B050" stroke-width="3.4375" stroke-linejoin="round" stroke-miterlimit="10" fill="#00B050"/></g><g><text font-family="Calibri,Calibri_MSFontService,sans-serif" font-weight="400" font-size="73" transform="matrix(1 0 0 1 2643.51 1482)">RESDSQL</text></g><g><path d="M2546 1580 2634 1580" stroke="#00B0F0" stroke-width="10.3125" stroke-linecap="round" stroke-linejoin="round" stroke-miterlimit="10" fill="none" fill-rule="evenodd"/></g><g><path d="M2601 1579C2601 1585.07 2596.07 1590 2590 1590 2583.93 1590 2579 1585.07 2579 1579 2579 1572.92 2583.93 1568 2590 1568 2596.07 1568 2601 1572.92 2601 1579Z" stroke="#00B0F0" stroke-width="3.4375" stroke-linejoin="round" stroke-miterlimit="10" fill="#00B0F0"/></g><g><text font-family="Calibri,Calibri_MSFontService,sans-serif" font-weight="400" font-size="73" transform="matrix(1 0 0 1 2643.51 1601)">C3</text></g><rect x="2520.5" y="224.5" width="2586" height="1861" stroke="#D9D9D9" stroke-width="0" stroke-linejoin="round" stroke-miterlimit="10" stroke-opacity="0" fill="none"/></g></svg>