<svg xmlns="http://www.w3.org/2000/svg" xmlns:xlink="http://www.w3.org/1999/xlink" xml:space="preserve" overflow="hidden" viewBox="0.5 0.5 5087.5 4130.5"><defs><clipPath id="clip0"><rect x="2498" y="2071" width="2590" height="2060"/></clipPath></defs><g clip-path="url(#clip0)" transform="translate(-2498 -2071)"><g><path d="M3792.62 3000.6 3887.63 3069.6M3887.63 3069.6 3851.63 3181.6M3851.63 3181.6 3733.62 3181.6M3733.62 3181.6 3697.62 3069.6M3697.62 3069.6 3792.62 3000.6M3792.62 2900.6 3982.63 3038.6M3982.63 3038.6 3909.63 3261.61M3909.63 3261.61 3675.62 3261.61M3675.62 3261.61 3602.62 3038.6M3602.62 3038.6 3792.62 2900.6M3792.62 2800.59 4077.63 3007.6M4077.63 3007.6 3968.63 3342.61M3968.63 3342.61 3616.62 3342.61M3616.62 3342.61 3507.62 3007.6M3507.62 3007.6 3792.62 2800.59M3792.62 2700.59 4172.64 2976.6M4172.64 2976.6 4027.63 3423.61M4027.63 3423.61 3557.62 3423.61M3557.62 3423.61 3412.61 2976.6M3412.61 2976.6 3792.62 2700.59M3792.62 2601.59 4267.64 2946.6M4267.64 2946.6 4085.63 3504.62M4085.63 3504.62 3499.61 3504.62M3499.61 3504.62 3317.61 2946.6M3317.61 2946.6 3792.62 2601.59M3792.62 2501.58 4362.64 2915.6M4362.64 2915.6 4144.64 3585.62M4144.64 3585.62 3440.61 3585.62M3440.61 3585.62 3222.61 2915.6M3222.61 2915.6 3792.62 2501.58M3792.62 2401.58 4457.65 2884.59M4457.65 2884.59 4203.64 3665.62M4203.64 3665.62 3381.61 3665.62M3381.61 3665.62 3127.6 2884.59M3127.6 2884.59 3792.62 2401.58M3792.62 2301.5 4552.5 2853.59M4552.5 2853.59 4262.64 3746.5M4262.64 3746.5 3322.61 3746.5M3322.61 3746.5 3032.5 2853.59M3032.5 2853.59 3792.62 2301.5" stroke="#000000" stroke-width="3.4375" stroke-linejoin="round" stroke-miterlimit="10" fill="none"/></g><g><path d="M3186 2903.1 3792.12 2410 4347 2920.1 4075.13 3490.11 3415.11 3620 3186 2903.1" stroke="#FF0000" stroke-width="13.75" stroke-linecap="round" stroke-linejoin="round" stroke-miterlimit="10" fill="none"/></g><g><path d="M3803.72 2410.01C3803.72 2416.09 3798.8 2421.01 3792.72 2421.01 3786.65 2421.01 3781.72 2416.09 3781.72 2410.01 3781.72 2403.94 3786.65 2399.01 3792.72 2399.01 3798.8 2399.01 3803.72 2403.94 3803.72 2410.01Z" stroke="#FF0000" stroke-width="3.4375" stroke-linejoin="round" stroke-miterlimit="10" fill="#FF0000"/><path d="M4358.72 2920.01C4358.72 2926.09 4353.8 2931.01 4347.72 2931.01 4341.65 2931.01 4336.72 2926.09 4336.72 2920.01 4336.72 2913.94 4341.65 2909.01 4347.72 2909.01 4353.8 2909.01 4358.72 2913.94 4358.72 2920.01Z" stroke="#FF0000" stroke-width="3.4375" stroke-linejoin="round" stroke-miterlimit="10" fill="#FF0000"/><path d="M4086.72 3489.01C4086.72 3495.09 4081.8 3500.01 4075.72 3500.01 4069.65 3500.01 4064.72 3495.09 4064.72 3489.01 4064.72 3482.94 4069.65 3478.01 4075.72 3478.01 4081.8 3478.01 4086.72 3482.94 4086.72 3489.01Z" stroke="#FF0000" stroke-width="3.4375" stroke-linejoin="round" stroke-miterlimit="10" fill="#FF0000"/><path d="M3426.72 3619.01C3426.72 3625.09 3421.8 3630.01 3415.72 3630.01 3409.65 3630.01 3404.72 3625.09 3404.72 3619.01 3404.72 3612.94 3409.65 3608.01 3415.72 3608.01 3421.8 3608.01 3426.72 3612.94 3426.72 3619.01Z" stroke="#FF0000" stroke-width="3.4375" stroke-linejoin="round" stroke-miterlimit="10" fill="#FF0000"/><path d="M3196.72 2903.01C3196.72 2909.09 3191.8 2914.01 3185.72 2914.01 3179.65 2914.01 3174.72 2909.09 3174.72 2903.01 3174.72 2896.94 3179.65 2892.01 3185.72 2892.01 3191.8 2892.01 3196.72 2896.94 3196.72 2903.01Z" stroke="#FF0000" stroke-width="3.4375" stroke-linejoin="round" stroke-miterlimit="10" fill="#FF0000"/></g><g><path d="M3173 2899.09 3792.12 2394 4385 2908.1 4071.13 3484.11 3398.11 3643 3173 2899.09" stroke="#00B050" stroke-width="13.75" stroke-linecap="round" stroke-linejoin="round" stroke-miterlimit="10" fill="none"/></g><g><path d="M3803.72 2394.01C3803.72 2400.09 3798.8 2405.01 3792.72 2405.01 3786.65 2405.01 3781.72 2400.09 3781.72 2394.01 3781.72 2387.94 3786.65 2383.01 3792.72 2383.01 3798.8 2383.01 3803.72 2387.94 3803.72 2394.01Z" stroke="#00B050" stroke-width="3.4375" stroke-linejoin="round" stroke-miterlimit="10" fill="#00B050"/><path d="M4396.72 2907.01C4396.72 2913.09 4391.8 2918.01 4385.72 2918.01 4379.65 2918.01 4374.72 2913.09 4374.72 2907.01 4374.72 2900.94 4379.65 2896.01 4385.72 2896.01 4391.8 2896.01 4396.72 2900.94 4396.72 2907.01Z" stroke="#00B050" stroke-width="3.4375" stroke-linejoin="round" stroke-miterlimit="10" fill="#00B050"/><path d="M4082.72 3484.01C4082.72 3490.09 4077.8 3495.01 4071.72 3495.01 4065.65 3495.01 4060.72 3490.09 4060.72 3484.01 4060.72 3477.94 4065.65 3473.01 4071.72 3473.01 4077.8 3473.01 4082.72 3477.94 4082.72 3484.01Z" stroke="#00B050" stroke-width="3.4375" stroke-linejoin="round" stroke-miterlimit="10" fill="#00B050"/><path d="M3409.72 3643.01C3409.72 3649.09 3404.8 3654.01 3398.72 3654.01 3392.65 3654.01 3387.72 3649.09 3387.72 3643.01 3387.72 3636.94 3392.65 3632.01 3398.72 3632.01 3404.8 3632.01 3409.72 3636.94 3409.72 3643.01Z" stroke="#00B050" stroke-width="3.4375" stroke-linejoin="round" stroke-miterlimit="10" fill="#00B050"/><path d="M3184.72 2899.01C3184.72 2905.09 3179.8 2910.01 3173.72 2910.01 3167.65 2910.01 3162.72 2905.09 3162.72 2899.01 3162.72 2892.94 3167.65 2888.01 3173.72 2888.01 3179.8 2888.01 3184.72 2892.94 3184.72 2899.01Z" stroke="#00B050" stroke-width="3.4375" stroke-linejoin="round" stroke-miterlimit="10" fill="#00B050"/></g><g><path d="M3089.5 2871.59 3792.62 2311.5 4314.5 2930.6 4162.64 3609.62 3364.61 3690.5 3089.5 2871.59" stroke="#00B0F0" stroke-width="14.8958" stroke-linecap="round" stroke-linejoin="round" stroke-miterlimit="10" fill="none"/></g><g><path d="M3803.72 2311.01C3803.72 2317.09 3798.8 2322.01 3792.72 2322.01 3786.65 2322.01 3781.72 2317.09 3781.72 2311.01 3781.72 2304.94 3786.65 2300.01 3792.72 2300.01 3798.8 2300.01 3803.72 2304.94 3803.72 2311.01Z" stroke="#00B0F0" stroke-width="3.4375" stroke-linejoin="round" stroke-miterlimit="10" fill="#00B0F0"/><path d="M4325.72 2930.01C4325.72 2936.09 4320.8 2941.01 4314.72 2941.01 4308.65 2941.01 4303.72 2936.09 4303.72 2930.01 4303.72 2923.94 4308.65 2919.01 4314.72 2919.01 4320.8 2919.01 4325.72 2923.94 4325.72 2930.01Z" stroke="#00B0F0" stroke-width="3.4375" stroke-linejoin="round" stroke-miterlimit="10" fill="#00B0F0"/><path d="M4173.72 3609.01C4173.72 3615.09 4168.8 3620.01 4162.72 3620.01 4156.65 3620.01 4151.72 3615.09 4151.72 3609.01 4151.72 3602.94 4156.65 3598.01 4162.72 3598.01 4168.8 3598.01 4173.72 3602.94 4173.72 3609.01Z" stroke="#00B0F0" stroke-width="3.4375" stroke-linejoin="round" stroke-miterlimit="10" fill="#00B0F0"/><path d="M3375.72 3690.01C3375.72 3696.09 3370.8 3701.01 3364.72 3701.01 3358.65 3701.01 3353.72 3696.09 3353.72 3690.01 3353.72 3683.94 3358.65 3679.01 3364.72 3679.01 3370.8 3679.01 3375.72 3683.94 3375.72 3690.01Z" stroke="#00B0F0" stroke-width="3.4375" stroke-linejoin="round" stroke-miterlimit="10" fill="#00B0F0"/><path d="M3100.72 2872.01C3100.72 2878.09 3095.8 2883.01 3089.72 2883.01 3083.65 2883.01 3078.72 2878.09 3078.72 2872.01 3078.72 2865.94 3083.65 2861.01 3089.72 2861.01 3095.8 2861.01 3100.72 2865.94 3100.72 2872.01Z" stroke="#00B0F0" stroke-width="3.4375" stroke-linejoin="round" stroke-miterlimit="10" fill="#00B0F0"/></g><g><text font-family="Calibri,Calibri_MSFontService,sans-serif" font-weight="400" font-size="64" transform="matrix(1 0 0 1 3695.05 3122)">0</text></g><g><text font-family="Calibri,Calibri_MSFontService,sans-serif" font-weight="400" font-size="64" transform="matrix(1 0 0 1 3662.54 3022)">10</text></g><g><text font-family="Calibri,Calibri_MSFontService,sans-serif" font-weight="400" font-size="64" transform="matrix(1 0 0 1 3662.54 2923)">20</text></g><g><text font-family="Calibri,Calibri_MSFontService,sans-serif" font-weight="400" font-size="64" transform="matrix(1 0 0 1 3662.54 2823)">30</text></g><g><text font-family="Calibri,Calibri_MSFontService,sans-serif" font-weight="400" font-size="64" transform="matrix(1 0 0 1 3662.54 2723)">40</text></g><g><text font-family="Calibri,Calibri_MSFontService,sans-serif" font-weight="400" font-size="64" transform="matrix(1 0 0 1 3662.54 2623)">50</text></g><g><text font-family="Calibri,Calibri_MSFontService,sans-serif" font-weight="400" font-size="64" transform="matrix(1 0 0 1 3662.54 2523)">60</text></g><g><text font-family="Calibri,Calibri_MSFontService,sans-serif" font-weight="400" font-size="64" transform="matrix(1 0 0 1 3662.54 2423)">70</text></g><g><text font-family="Calibri,Calibri_MSFontService,sans-serif" font-weight="400" font-size="64" transform="matrix(1 0 0 1 3662.54 2323)">80</text></g><g><text font-family="Calibri,Calibri_MSFontService,sans-serif" font-weight="400" font-size="83" transform="matrix(1 0 0 1 3620.8 2239)">Pol-Spider</text></g><g><text font-family="Calibri,Calibri_MSFontService,sans-serif" font-weight="400" font-size="83" transform="matrix(1 0 0 1 4582.81 2868)">Pol-Spidersyn</text></g><g><text font-family="Calibri,Calibri_MSFontService,sans-serif" font-weight="400" font-size="83" transform="matrix(1 0 0 1 4280.98 3797)">Pol-Spiderdk</text></g><g><text font-family="Calibri,Calibri_MSFontService,sans-serif" font-weight="400" font-size="83" transform="matrix(1 0 0 1 2989.55 3797)">Pol-Sparc</text></g><g><text font-family="Calibri,Calibri_MSFontService,sans-serif" font-weight="400" font-size="83" transform="matrix(1 0 0 1 2690.08 2868)">Pol-Cosql</text></g><g><rect x="2538.5" y="3129.5" width="409" height="419" stroke="#7030A0" stroke-width="0" stroke-linejoin="round" stroke-miterlimit="10" fill="none"/></g><g><path d="M2561 3199 2649 3199" stroke="#FF0000" stroke-width="13.75" stroke-linecap="round" stroke-linejoin="round" stroke-miterlimit="10" fill="none" fill-rule="evenodd"/></g><g><path d="M2616 3199C2616 3205.07 2611.07 3210 2605 3210 2598.93 3210 2594 3205.07 2594 3199 2594 3192.92 2598.93 3188 2605 3188 2611.07 3188 2616 3192.92 2616 3199Z" stroke="#FF0000" stroke-width="3.4375" stroke-linejoin="round" stroke-miterlimit="10" fill="#FF0000"/></g><g><text font-family="Calibri,Calibri_MSFontService,sans-serif" font-weight="400" font-size="73" transform="matrix(1 0 0 1 2658.75 3221)">BRIDGE</text></g><g><path d="M2561 3339 2649 3339" stroke="#00B050" stroke-width="13.75" stroke-linecap="round" stroke-linejoin="round" stroke-miterlimit="10" fill="none" fill-rule="evenodd"/></g><g><path d="M2616 3339C2616 3345.07 2611.07 3350 2605 3350 2598.93 3350 2594 3345.07 2594 3339 2594 3332.92 2598.93 3328 2605 3328 2611.07 3328 2616 3332.92 2616 3339Z" stroke="#00B050" stroke-width="3.4375" stroke-linejoin="round" stroke-miterlimit="10" fill="#00B050"/></g><g><text font-family="Calibri,Calibri_MSFontService,sans-serif" font-weight="400" font-size="73" transform="matrix(1 0 0 1 2658.75 3360)">RESDSQL</text></g><g><path d="M2561.5 3478.5 2649.5 3478.5" stroke="#00B0F0" stroke-width="14.8958" stroke-linecap="round" stroke-linejoin="round" stroke-miterlimit="10" fill="none" fill-rule="evenodd"/></g><g><path d="M2616 3478C2616 3484.07 2611.07 3489 2605 3489 2598.93 3489 2594 3484.07 2594 3478 2594 3471.92 2598.93 3467 2605 3467 2611.07 3467 2616 3471.92 2616 3478Z" stroke="#00B0F0" stroke-width="3.4375" stroke-linejoin="round" stroke-miterlimit="10" fill="#00B0F0"/></g><g><text font-family="Calibri,Calibri_MSFontService,sans-serif" font-weight="400" font-size="73" transform="matrix(1 0 0 1 2658.75 3500)">C3</text></g><rect x="2498.5" y="2071.5" width="2589" height="2059" stroke="#D9D9D9" stroke-width="0" stroke-linejoin="round" stroke-miterlimit="10" fill="none"/></g></svg>