<?xml version="1.0" encoding="UTF-8" standalone="no"?>
<svg
   width="3451"
   height="2264"
   xml:space="preserve"
   overflow="hidden"
   version="1.1"
   id="svg382"
   sodipodi:docname="final_resdsql_radar.svg"
   inkscape:version="1.2.2 (732a01da63, 2022-12-09)"
   xmlns:inkscape="http://www.inkscape.org/namespaces/inkscape"
   xmlns:sodipodi="http://sodipodi.sourceforge.net/DTD/sodipodi-0.dtd"
   xmlns="http://www.w3.org/2000/svg"
   xmlns:svg="http://www.w3.org/2000/svg"><sodipodi:namedview
     id="namedview384"
     pagecolor="#ffffff"
     bordercolor="#000000"
     borderopacity="0.25"
     inkscape:showpageshadow="2"
     inkscape:pageopacity="0.0"
     inkscape:pagecheckerboard="0"
     inkscape:deskcolor="#d1d1d1"
     showgrid="false"
     inkscape:zoom="0.32666807"
     inkscape:cx="2332.643"
     inkscape:cy="1230.607"
     inkscape:window-width="3840"
     inkscape:window-height="2066"
     inkscape:window-x="-11"
     inkscape:window-y="-11"
     inkscape:window-maximized="1"
     inkscape:current-layer="svg382" /><defs
     id="defs200"><clipPath
       id="clip0"><rect
         x="2254"
         y="3991"
         width="4751"
         height="2464"
         id="rect194" /></clipPath><clipPath
       id="clip1"><rect
         x="2254"
         y="3991"
         width="4750"
         height="2463"
         id="rect197" /></clipPath></defs><g
     clip-path="url(#clip0)"
     transform="translate(-3484.607,-3984.8775)"
     id="g380"><g
       id="g204"><path
         d="m 4944.66,5107.67 136.01,98 m 0,0 -52,159.01 m 0,0 h -167.01 m 0,0 -52,-159.01 m 0,0 135,-98 m 0,-142.01 271.01,196.01 m 0,0 -103,318.01 m 0,0 h -335.01 m 0,0 -103.01,-318.01 m 0,0 270.01,-196.01 m 0,-143 406.02,295.01 m 0,0 -155.01,477.01 m 0,0 h -501.02 m 0,0 -155,-477.01 m 0,0 405.01,-295.01 m 0,-142.01 541.02,393.02 m 0,0 -206.01,636.02 m 0,0 h -669.02 m 0,0 -206.01,-636.02 m 0,0 540.02,-393.02 m 0,-142 676.02,491.02 m 0,0 -258,795.02 m 0,0 h -835.03 m 0,0 -258.01,-795.02 m 0,0 675.02,-491.02 m 0,-142.01 812.03,589.02 m 0,0 -310.01,954.03 m 0,0 H 4443.65 m 0,0 -310.01,-954.03 m 0,0 811.02,-589.02 m 0,-142 947.03,687.02 m 0,0 -362.01,1113.04 m 0,0 H 4360.64 m 0,0 -362.01,-1113.04 m 0,0 946.03,-687.02 m 0,-142.14 1081.84,785.16 m 0,0 -412.82,1271.84 m 0,0 H 4276.64 m 0,0 -413.14,-1271.84 m 0,0 1081.16,-785.16"
         stroke="#000000"
         stroke-width="3.4375"
         stroke-linejoin="round"
         stroke-miterlimit="10"
         fill="none"
         id="path202" /></g><g
       id="g208"><path
         d="M 4064,4963.16 4945.16,4245 5789,4975.16 5342.18,5796.19 4384.14,6022 4064,4963.16"
         stroke="#ff0000"
         stroke-width="13.75"
         stroke-linecap="round"
         stroke-linejoin="round"
         stroke-miterlimit="10"
         stroke-dasharray="0, 27.5"
         fill="none"
         id="path206" /></g><g
       id="g220"><path
         d="m 4956.67,4244.46 c 0,6.08 -4.93,11 -11,11 -6.08,0 -11,-4.92 -11,-11 0,-6.07 4.92,-11 11,-11 6.07,0 11,4.93 11,11 z"
         stroke="#ff0000"
         stroke-width="3.4375"
         stroke-linejoin="round"
         stroke-miterlimit="10"
         stroke-dasharray="3.4375, 3.4375"
         fill="#ff0000"
         id="path210" /><path
         d="m 5799.67,4975.46 c 0,6.08 -4.93,11 -11,11 -6.08,0 -11,-4.92 -11,-11 0,-6.07 4.92,-11 11,-11 6.07,0 11,4.93 11,11 z"
         stroke="#ff0000"
         stroke-width="3.4375"
         stroke-linejoin="round"
         stroke-miterlimit="10"
         stroke-dasharray="3.4375, 3.4375"
         fill="#ff0000"
         id="path212" /><path
         d="m 5353.67,5795.46 c 0,6.08 -4.93,11 -11,11 -6.08,0 -11,-4.92 -11,-11 0,-6.07 4.92,-11 11,-11 6.07,0 11,4.93 11,11 z"
         stroke="#ff0000"
         stroke-width="3.4375"
         stroke-linejoin="round"
         stroke-miterlimit="10"
         stroke-dasharray="3.4375, 3.4375"
         fill="#ff0000"
         id="path214" /><path
         d="m 4394.67,6022.46 c 0,6.08 -4.93,11 -11,11 -6.08,0 -11,-4.92 -11,-11 0,-6.07 4.92,-11 11,-11 6.07,0 11,4.93 11,11 z"
         stroke="#ff0000"
         stroke-width="3.4375"
         stroke-linejoin="round"
         stroke-miterlimit="10"
         stroke-dasharray="3.4375, 3.4375"
         fill="#ff0000"
         id="path216" /><path
         d="m 4074.67,4963.46 c 0,6.08 -4.93,11 -11,11 -6.08,0 -11,-4.92 -11,-11 0,-6.07 4.92,-11 11,-11 6.07,0 11,4.93 11,11 z"
         stroke="#ff0000"
         stroke-width="3.4375"
         stroke-linejoin="round"
         stroke-miterlimit="10"
         stroke-dasharray="3.4375, 3.4375"
         fill="#ff0000"
         id="path218" /></g><g
       id="g224"><path
         d="M 3987,4938.16 4945.16,4178 5894,4941.16 5392.18,5865.19 4310.14,6123 3987,4938.16"
         stroke="#ff0000"
         stroke-width="13.75"
         stroke-linecap="round"
         stroke-linejoin="round"
         stroke-miterlimit="10"
         fill="none"
         id="path222" /></g><g
       id="g236"><path
         d="m 4956.67,4177.46 c 0,6.08 -4.93,11 -11,11 -6.08,0 -11,-4.92 -11,-11 0,-6.07 4.92,-11 11,-11 6.07,0 11,4.93 11,11 z"
         stroke="#ff0000"
         stroke-width="3.4375"
         stroke-linejoin="round"
         stroke-miterlimit="10"
         fill="#ff0000"
         id="path226" /><path
         d="m 5905.67,4941.46 c 0,6.08 -4.93,11 -11,11 -6.08,0 -11,-4.92 -11,-11 0,-6.07 4.92,-11 11,-11 6.07,0 11,4.93 11,11 z"
         stroke="#ff0000"
         stroke-width="3.4375"
         stroke-linejoin="round"
         stroke-miterlimit="10"
         fill="#ff0000"
         id="path228" /><path
         d="m 5403.67,5864.46 c 0,6.08 -4.93,11 -11,11 -6.08,0 -11,-4.92 -11,-11 0,-6.07 4.92,-11 11,-11 6.07,0 11,4.93 11,11 z"
         stroke="#ff0000"
         stroke-width="3.4375"
         stroke-linejoin="round"
         stroke-miterlimit="10"
         fill="#ff0000"
         id="path230" /><path
         d="m 4321.67,6123.46 c 0,6.08 -4.93,11 -11,11 -6.08,0 -11,-4.92 -11,-11 0,-6.07 4.92,-11 11,-11 6.07,0 11,4.93 11,11 z"
         stroke="#ff0000"
         stroke-width="3.4375"
         stroke-linejoin="round"
         stroke-miterlimit="10"
         fill="#ff0000"
         id="path232" /><path
         d="m 3997.67,4938.46 c 0,6.08 -4.93,11 -11,11 -6.08,0 -11,-4.92 -11,-11 0,-6.07 4.92,-11 11,-11 6.07,0 11,4.93 11,11 z"
         stroke="#ff0000"
         stroke-width="3.4375"
         stroke-linejoin="round"
         stroke-miterlimit="10"
         fill="#ff0000"
         id="path234" /></g><g
       id="g240"><path
         d="M 4307,5042.17 4945.16,4485 5558,5050.17 5195.17,5593.18 4531.15,5819 4307,5042.17"
         stroke="#00b050"
         stroke-width="13.75"
         stroke-linecap="round"
         stroke-linejoin="round"
         stroke-miterlimit="10"
         stroke-dasharray="0, 27.5"
         fill="none"
         id="path238" /></g><g
       id="g252"><path
         d="m 4956.67,4484.46 c 0,6.08 -4.93,11 -11,11 -6.08,0 -11,-4.92 -11,-11 0,-6.07 4.92,-11 11,-11 6.07,0 11,4.93 11,11 z"
         stroke="#00b050"
         stroke-width="3.4375"
         stroke-linejoin="round"
         stroke-miterlimit="10"
         stroke-dasharray="3.4375, 3.4375"
         fill="#00b050"
         id="path242" /><path
         d="m 5568.67,5050.46 c 0,6.08 -4.93,11 -11,11 -6.08,0 -11,-4.92 -11,-11 0,-6.07 4.92,-11 11,-11 6.07,0 11,4.93 11,11 z"
         stroke="#00b050"
         stroke-width="3.4375"
         stroke-linejoin="round"
         stroke-miterlimit="10"
         stroke-dasharray="3.4375, 3.4375"
         fill="#00b050"
         id="path244" /><path
         d="m 5205.67,5593.46 c 0,6.08 -4.93,11 -11,11 -6.08,0 -11,-4.92 -11,-11 0,-6.07 4.92,-11 11,-11 6.07,0 11,4.93 11,11 z"
         stroke="#00b050"
         stroke-width="3.4375"
         stroke-linejoin="round"
         stroke-miterlimit="10"
         stroke-dasharray="3.4375, 3.4375"
         fill="#00b050"
         id="path246" /><path
         d="m 4542.67,5818.46 c 0,6.08 -4.93,11 -11,11 -6.08,0 -11,-4.92 -11,-11 0,-6.07 4.92,-11 11,-11 6.07,0 11,4.93 11,11 z"
         stroke="#00b050"
         stroke-width="3.4375"
         stroke-linejoin="round"
         stroke-miterlimit="10"
         stroke-dasharray="3.4375, 3.4375"
         fill="#00b050"
         id="path248" /><path
         d="m 4318.67,5042.46 c 0,6.08 -4.93,11 -11,11 -6.08,0 -11,-4.92 -11,-11 0,-6.07 4.92,-11 11,-11 6.07,0 11,4.93 11,11 z"
         stroke="#00b050"
         stroke-width="3.4375"
         stroke-linejoin="round"
         stroke-miterlimit="10"
         stroke-dasharray="3.4375, 3.4375"
         fill="#00b050"
         id="path250" /></g><g
       id="g256"><path
         d="M 4196,5006.16 4945.16,4377 5685,5009.16 5288.17,5721.19 4431.15,5957 4196,5006.16"
         stroke="#00b050"
         stroke-width="13.75"
         stroke-linecap="round"
         stroke-linejoin="round"
         stroke-miterlimit="10"
         fill="none"
         id="path254" /></g><g
       id="g268"><path
         d="m 4956.67,4376.46 c 0,6.08 -4.93,11 -11,11 -6.08,0 -11,-4.92 -11,-11 0,-6.07 4.92,-11 11,-11 6.07,0 11,4.93 11,11 z"
         stroke="#00b050"
         stroke-width="3.4375"
         stroke-linejoin="round"
         stroke-miterlimit="10"
         fill="#00b050"
         id="path258" /><path
         d="m 5695.67,5009.46 c 0,6.08 -4.93,11 -11,11 -6.08,0 -11,-4.92 -11,-11 0,-6.07 4.92,-11 11,-11 6.07,0 11,4.93 11,11 z"
         stroke="#00b050"
         stroke-width="3.4375"
         stroke-linejoin="round"
         stroke-miterlimit="10"
         fill="#00b050"
         id="path260" /><path
         d="m 5298.67,5720.46 c 0,6.08 -4.93,11 -11,11 -6.08,0 -11,-4.92 -11,-11 0,-6.07 4.92,-11 11,-11 6.07,0 11,4.93 11,11 z"
         stroke="#00b050"
         stroke-width="3.4375"
         stroke-linejoin="round"
         stroke-miterlimit="10"
         fill="#00b050"
         id="path262" /><path
         d="m 4442.67,5956.46 c 0,6.08 -4.93,11 -11,11 -6.08,0 -11,-4.92 -11,-11 0,-6.07 4.92,-11 11,-11 6.07,0 11,4.93 11,11 z"
         stroke="#00b050"
         stroke-width="3.4375"
         stroke-linejoin="round"
         stroke-miterlimit="10"
         fill="#00b050"
         id="path264" /><path
         d="m 4207.67,5006.46 c 0,6.08 -4.93,11 -11,11 -6.08,0 -11,-4.92 -11,-11 0,-6.07 4.92,-11 11,-11 6.07,0 11,4.93 11,11 z"
         stroke="#00b050"
         stroke-width="3.4375"
         stroke-linejoin="round"
         stroke-miterlimit="10"
         fill="#00b050"
         id="path266" /></g><g
       id="g272"><text
         font-family="Calibri, Calibri_MSFontService, sans-serif"
         font-weight="400"
         font-size="64px"
         transform="translate(4847.6,5271)"
         id="text270">0</text></g><g
       id="g276"><text
         font-family="Calibri, Calibri_MSFontService, sans-serif"
         font-weight="400"
         font-size="64px"
         transform="translate(4815.08,5129)"
         id="text274">10</text></g><g
       id="g280"><text
         font-family="Calibri, Calibri_MSFontService, sans-serif"
         font-weight="400"
         font-size="64px"
         transform="translate(4815.08,4987)"
         id="text278">20</text></g><g
       id="g284"><text
         font-family="Calibri, Calibri_MSFontService, sans-serif"
         font-weight="400"
         font-size="64px"
         transform="translate(4815.08,4845)"
         id="text282">30</text></g><g
       id="g288"><text
         font-family="Calibri, Calibri_MSFontService, sans-serif"
         font-weight="400"
         font-size="64px"
         transform="translate(4815.08,4703)"
         id="text286">40</text></g><g
       id="g292"><text
         font-family="Calibri, Calibri_MSFontService, sans-serif"
         font-weight="400"
         font-size="64px"
         transform="translate(4815.08,4561)"
         id="text290">50</text></g><g
       id="g296"><text
         font-family="Calibri, Calibri_MSFontService, sans-serif"
         font-weight="400"
         font-size="64px"
         transform="translate(4815.08,4419)"
         id="text294">60</text></g><g
       id="g300"><text
         font-family="Calibri, Calibri_MSFontService, sans-serif"
         font-weight="400"
         font-size="64px"
         transform="translate(4815.08,4276)"
         id="text298">70</text></g><g
       id="g304"><text
         font-family="Calibri, Calibri_MSFontService, sans-serif"
         font-weight="400"
         font-size="64px"
         transform="translate(4815.08,4134)"
         id="text302">80</text></g><g
       clip-path="url(#clip1)"
       id="g308"><text
         font-family="Calibri, Calibri_MSFontService, sans-serif"
         font-weight="400"
         font-size="83px"
         transform="translate(4775.81,4036)"
         id="text306">pol-spider</text></g><g
       id="g312"><text
         font-family="Calibri, Calibri_MSFontService, sans-serif"
         font-weight="400"
         font-size="83px"
         transform="translate(6069.87,4908)"
         id="text310">pol-spidersyn</text></g><g
       id="g316"><text
         font-family="Calibri, Calibri_MSFontService, sans-serif"
         font-weight="400"
         font-size="83px"
         transform="translate(5640.27,6230)"
         id="text314">pol-spiderdk</text></g><g
       id="g320"><text
         font-family="Calibri, Calibri_MSFontService, sans-serif"
         font-weight="400"
         font-size="83px"
         transform="translate(3940.28,6230)"
         id="text318">pol-sparc</text></g><g
       id="g324"><text
         font-family="Calibri, Calibri_MSFontService, sans-serif"
         font-weight="400"
         font-size="83px"
         transform="translate(3516.52,4908)"
         id="text322">pol-cosql</text></g><g
       id="g328"><rect
         x="6125.5"
         y="5259.5"
         width="832"
         height="376"
         stroke="#7030a0"
         stroke-width="0"
         stroke-linejoin="round"
         stroke-miterlimit="10"
         fill="none"
         id="rect326" /></g><g
       id="g332"><path
         d="m 6151,5307 h 115"
         stroke="#ff0000"
         stroke-width="13.75"
         stroke-linecap="round"
         stroke-linejoin="round"
         stroke-miterlimit="10"
         stroke-dasharray="0, 27.5"
         fill="none"
         fill-rule="evenodd"
         id="path330" /></g><g
       id="g336"><path
         d="m 6219,5306 c 0,6.07 -4.92,11 -11,11 -6.08,0 -11,-4.93 -11,-11 0,-6.08 4.92,-11 11,-11 6.08,0 11,4.92 11,11 z"
         stroke="#ff0000"
         stroke-width="3.4375"
         stroke-linejoin="round"
         stroke-miterlimit="10"
         stroke-dasharray="3.4375, 3.4375"
         fill="#ff0000"
         id="path334" /></g><g
       id="g340"><text
         font-family="Calibri, Calibri_MSFontService, sans-serif"
         font-weight="400"
         font-size="55px"
         transform="translate(6278.86,5322)"
         id="text338">EX (model eksperymentalny)</text></g><g
       id="g344"><path
         d="m 6151,5401 h 115"
         stroke="#ff0000"
         stroke-width="13.75"
         stroke-linecap="round"
         stroke-linejoin="round"
         stroke-miterlimit="10"
         fill="none"
         fill-rule="evenodd"
         id="path342" /></g><g
       id="g348"><path
         d="m 6219,5400 c 0,6.07 -4.92,11 -11,11 -6.08,0 -11,-4.93 -11,-11 0,-6.08 4.92,-11 11,-11 6.08,0 11,4.92 11,11 z"
         stroke="#ff0000"
         stroke-width="3.4375"
         stroke-linejoin="round"
         stroke-miterlimit="10"
         fill="#ff0000"
         id="path346" /></g><g
       id="g352"><text
         font-family="Calibri, Calibri_MSFontService, sans-serif"
         font-weight="400"
         font-size="55px"
         transform="translate(6278.86,5416)"
         id="text350">EX (model finalny)</text></g><g
       id="g356"><path
         d="m 6151,5495 h 115"
         stroke="#00b050"
         stroke-width="13.75"
         stroke-linecap="round"
         stroke-linejoin="round"
         stroke-miterlimit="10"
         stroke-dasharray="0, 27.5"
         fill="none"
         fill-rule="evenodd"
         id="path354" /></g><g
       id="g360"><path
         d="m 6219,5494 c 0,6.07 -4.92,11 -11,11 -6.08,0 -11,-4.93 -11,-11 0,-6.08 4.92,-11 11,-11 6.08,0 11,4.92 11,11 z"
         stroke="#00b050"
         stroke-width="3.4375"
         stroke-linejoin="round"
         stroke-miterlimit="10"
         stroke-dasharray="3.4375, 3.4375"
         fill="#00b050"
         id="path358" /></g><g
       id="g364"><text
         font-family="Calibri, Calibri_MSFontService, sans-serif"
         font-weight="400"
         font-size="55px"
         transform="translate(6278.86,5510)"
         id="text362">EM (model eksperymentalny)</text></g><g
       id="g368"><path
         d="m 6151,5589 h 115"
         stroke="#00b050"
         stroke-width="13.75"
         stroke-linecap="round"
         stroke-linejoin="round"
         stroke-miterlimit="10"
         fill="none"
         fill-rule="evenodd"
         id="path366" /></g><g
       id="g372"><path
         d="m 6219,5588.5 c 0,5.81 -4.92,10.52 -11,10.52 -6.08,0 -11,-4.71 -11,-10.52 0,-5.81 4.92,-10.52 11,-10.52 6.08,0 11,4.71 11,10.52 z"
         stroke="#00b050"
         stroke-width="3.4375"
         stroke-linejoin="round"
         stroke-miterlimit="10"
         fill="#00b050"
         id="path370" /></g><g
       id="g376"><text
         font-family="Calibri, Calibri_MSFontService, sans-serif"
         font-weight="400"
         font-size="55px"
         transform="translate(6278.86,5604)"
         id="text374">EM (model finalny)</text></g><rect
       x="2254.5"
       y="3992.5"
       width="4750"
       height="2462"
       stroke="#d9d9d9"
       stroke-width="0"
       stroke-linejoin="round"
       stroke-miterlimit="10"
       stroke-opacity="0"
       fill="none"
       id="rect378" /></g></svg>
