<?xml version="1.0" encoding="UTF-8" standalone="no"?>
<svg
   width="2780"
   height="2140"
   xml:space="preserve"
   overflow="hidden"
   version="1.1"
   id="svg6495"
   sodipodi:docname="final_resdsql_radar.svg"
   inkscape:version="1.2.2 (732a01da63, 2022-12-09)"
   xmlns:inkscape="http://www.inkscape.org/namespaces/inkscape"
   xmlns:sodipodi="http://sodipodi.sourceforge.net/DTD/sodipodi-0.dtd"
   xmlns="http://www.w3.org/2000/svg"
   xmlns:svg="http://www.w3.org/2000/svg"><sodipodi:namedview
     id="namedview6497"
     pagecolor="#ffffff"
     bordercolor="#000000"
     borderopacity="0.25"
     inkscape:showpageshadow="2"
     inkscape:pageopacity="0.0"
     inkscape:pagecheckerboard="0"
     inkscape:deskcolor="#d1d1d1"
     showgrid="false"
     inkscape:zoom="0.52060772"
     inkscape:cx="1945.8029"
     inkscape:cy="1294.6408"
     inkscape:window-width="3840"
     inkscape:window-height="2066"
     inkscape:window-x="-11"
     inkscape:window-y="-11"
     inkscape:window-maximized="1"
     inkscape:current-layer="svg6495" /><defs
     id="defs6313"><clipPath
       id="clip0"><rect
         x="2757"
         y="3908"
         width="3759"
         height="2491"
         id="rect6307" /></clipPath><clipPath
       id="clip1"><rect
         x="2757"
         y="3908"
         width="3758"
         height="2489"
         id="rect6310" /></clipPath></defs><g
     clip-path="url(#clip0)"
     transform="translate(-3667.4744,-3980.9916)"
     id="g6493"><g
       id="g6317"><path
         d="m 4792.66,5047.67 125,91 m 0,0 -48,148 m 0,0 h -155.01 m 0,0 -48,-148 m 0,0 126.01,-91 m 0,-132.01 251.01,182.01 m 0,0 -96.01,296.01 m 0,0 h -311.01 m 0,0 -96,-296.01 m 0,0 252.01,-182.01 m 0,-133 377.01,275.01 m 0,0 -144,443.01 m 0,0 h -467.02 m 0,0 -144,-443.01 m 0,0 378.01,-275.01 m 0,-132.01 503.01,366.01 m 0,0 -192,591.02 m 0,0 h -622.02 m 0,0 -193.01,-591.02 m 0,0 504.02,-366.01 m 0,-132 629.02,457.01 m 0,0 -241.01,739.03 m 0,0 h -777.03 m 0,0 -241,-739.03 m 0,0 630.02,-457.01 m 0,-133.01 755.02,549.02 m 0,0 -289.01,887.03 m 0,0 h -933.03 m 0,0 -288.01,-887.03 m 0,0 755.03,-549.02 m 0,-132 880.03,640.02 m 0,0 -336.01,1035.03 m 0,0 H 4247.64 m 0,0 -336.01,-1035.03 m 0,0 881.03,-640.02 m 0,-132.14 1005.84,731.16 m 0,0 -383.82,1183.84 m 0,0 H 4169.64 m 0,0 -384.14,-1183.84 m 0,0 1007.16,-731.16"
         stroke="#000000"
         stroke-width="3.4375"
         stroke-linejoin="round"
         stroke-miterlimit="10"
         fill="none"
         id="path6315" /></g><g
       id="g6321"><path
         d="M 3972,4913.16 4792.16,4244 5577,4925.16 5162.17,5688.19 4270.14,5899 3972,4913.16"
         stroke="#ff0000"
         stroke-width="13.75"
         stroke-linecap="round"
         stroke-linejoin="round"
         stroke-miterlimit="10"
         stroke-dasharray="0, 27.5"
         fill="none"
         id="path6319" /></g><g
       id="g6333"><path
         d="m 4803.61,4244.88 c 0,6.08 -4.93,11 -11,11 -6.08,0 -11,-4.92 -11,-11 0,-6.07 4.92,-11 11,-11 6.07,0 11,4.93 11,11 z"
         stroke="#ff0000"
         stroke-width="3.4375"
         stroke-linejoin="round"
         stroke-miterlimit="10"
         stroke-dasharray="3.4375, 3.4375"
         fill="#ff0000"
         id="path6323" /><path
         d="m 5588.61,4924.88 c 0,6.08 -4.93,11 -11,11 -6.08,0 -11,-4.92 -11,-11 0,-6.07 4.92,-11 11,-11 6.07,0 11,4.93 11,11 z"
         stroke="#ff0000"
         stroke-width="3.4375"
         stroke-linejoin="round"
         stroke-miterlimit="10"
         stroke-dasharray="3.4375, 3.4375"
         fill="#ff0000"
         id="path6325" /><path
         d="m 5172.61,5688.88 c 0,6.08 -4.93,11 -11,11 -6.08,0 -11,-4.92 -11,-11 0,-6.07 4.92,-11 11,-11 6.07,0 11,4.93 11,11 z"
         stroke="#ff0000"
         stroke-width="3.4375"
         stroke-linejoin="round"
         stroke-miterlimit="10"
         stroke-dasharray="3.4375, 3.4375"
         fill="#ff0000"
         id="path6327" /><path
         d="m 4280.61,5899.88 c 0,6.08 -4.93,11 -11,11 -6.08,0 -11,-4.92 -11,-11 0,-6.07 4.92,-11 11,-11 6.07,0 11,4.93 11,11 z"
         stroke="#ff0000"
         stroke-width="3.4375"
         stroke-linejoin="round"
         stroke-miterlimit="10"
         stroke-dasharray="3.4375, 3.4375"
         fill="#ff0000"
         id="path6329" /><path
         d="m 3982.61,4913.88 c 0,6.08 -4.93,11 -11,11 -6.08,0 -11,-4.92 -11,-11 0,-6.07 4.92,-11 11,-11 6.07,0 11,4.93 11,11 z"
         stroke="#ff0000"
         stroke-width="3.4375"
         stroke-linejoin="round"
         stroke-miterlimit="10"
         stroke-dasharray="3.4375, 3.4375"
         fill="#ff0000"
         id="path6331" /></g><g
       id="g6337"><path
         d="M 3900,4890.16 4792.16,4182 5676,4893.16 5208.17,5752.19 4201.14,5993 3900,4890.16"
         stroke="#ff0000"
         stroke-width="13.75"
         stroke-linecap="round"
         stroke-linejoin="round"
         stroke-miterlimit="10"
         fill="none"
         id="path6335" /></g><g
       id="g6349"><path
         d="m 4803.61,4182.88 c 0,6.08 -4.93,11 -11,11 -6.08,0 -11,-4.92 -11,-11 0,-6.07 4.92,-11 11,-11 6.07,0 11,4.93 11,11 z"
         stroke="#ff0000"
         stroke-width="3.4375"
         stroke-linejoin="round"
         stroke-miterlimit="10"
         fill="#ff0000"
         id="path6339" /><path
         d="m 5686.61,4892.88 c 0,6.08 -4.93,11 -11,11 -6.08,0 -11,-4.92 -11,-11 0,-6.07 4.92,-11 11,-11 6.07,0 11,4.93 11,11 z"
         stroke="#ff0000"
         stroke-width="3.4375"
         stroke-linejoin="round"
         stroke-miterlimit="10"
         fill="#ff0000"
         id="path6341" /><path
         d="m 5219.61,5752.89 c 0,6.07 -4.93,10.99 -11,10.99 -6.08,0 -11,-4.92 -11,-10.99 0,-6.08 4.92,-11 11,-11 6.07,0 11,4.92 11,11 z"
         stroke="#ff0000"
         stroke-width="3.4375"
         stroke-linejoin="round"
         stroke-miterlimit="10"
         fill="#ff0000"
         id="path6343" /><path
         d="m 4212.61,5993.88 c 0,6.08 -4.93,11 -11,11 -6.08,0 -11,-4.92 -11,-11 0,-6.07 4.92,-11 11,-11 6.07,0 11,4.93 11,11 z"
         stroke="#ff0000"
         stroke-width="3.4375"
         stroke-linejoin="round"
         stroke-miterlimit="10"
         fill="#ff0000"
         id="path6345" /><path
         d="m 3911.61,4889.88 c 0,6.08 -4.93,11 -11,11 -6.08,0 -11,-4.92 -11,-11 0,-6.07 4.92,-11 11,-11 6.07,0 11,4.93 11,11 z"
         stroke="#ff0000"
         stroke-width="3.4375"
         stroke-linejoin="round"
         stroke-miterlimit="10"
         fill="#ff0000"
         id="path6347" /></g><g
       id="g6353"><path
         d="M 4198,4987.16 4792.16,4468 5362,4994.16 5025.17,5500.18 4407.14,5710 4198,4987.16"
         stroke="#00b050"
         stroke-width="13.75"
         stroke-linecap="round"
         stroke-linejoin="round"
         stroke-miterlimit="10"
         stroke-dasharray="0, 27.5"
         fill="none"
         id="path6351" /></g><g
       id="g6365"><path
         d="m 4803.61,4467.88 c 0,6.08 -4.93,11 -11,11 -6.08,0 -11,-4.92 -11,-11 0,-6.07 4.92,-11 11,-11 6.07,0 11,4.93 11,11 z"
         stroke="#00b050"
         stroke-width="3.4375"
         stroke-linejoin="round"
         stroke-miterlimit="10"
         stroke-dasharray="3.4375, 3.4375"
         fill="#00b050"
         id="path6355" /><path
         d="m 5373.61,4994.89 c 0,6.07 -4.93,10.99 -11,10.99 -6.08,0 -11,-4.92 -11,-10.99 0,-6.08 4.92,-11 11,-11 6.07,0 11,4.92 11,11 z"
         stroke="#00b050"
         stroke-width="3.4375"
         stroke-linejoin="round"
         stroke-miterlimit="10"
         stroke-dasharray="3.4375, 3.4375"
         fill="#00b050"
         id="path6357" /><path
         d="m 5035.61,5499.89 c 0,6.07 -4.93,10.99 -11,10.99 -6.08,0 -11,-4.92 -11,-10.99 0,-6.08 4.92,-11 11,-11 6.07,0 11,4.92 11,11 z"
         stroke="#00b050"
         stroke-width="3.4375"
         stroke-linejoin="round"
         stroke-miterlimit="10"
         stroke-dasharray="3.4375, 3.4375"
         fill="#00b050"
         id="path6359" /><path
         d="m 4418.61,5709.89 c 0,6.07 -4.93,10.99 -11,10.99 -6.08,0 -11,-4.92 -11,-10.99 0,-6.08 4.92,-11 11,-11 6.07,0 11,4.92 11,11 z"
         stroke="#00b050"
         stroke-width="3.4375"
         stroke-linejoin="round"
         stroke-miterlimit="10"
         stroke-dasharray="3.4375, 3.4375"
         fill="#00b050"
         id="path6361" /><path
         d="m 4209.61,4986.88 c 0,6.08 -4.93,11 -11,11 -6.08,0 -11,-4.92 -11,-11 0,-6.07 4.92,-11 11,-11 6.07,0 11,4.93 11,11 z"
         stroke="#00b050"
         stroke-width="3.4375"
         stroke-linejoin="round"
         stroke-miterlimit="10"
         stroke-dasharray="3.4375, 3.4375"
         fill="#00b050"
         id="path6363" /></g><g
       id="g6369"><path
         d="M 4095,4953.16 4792.16,4367 5481,4956.16 5111.17,5619.18 4314.14,5838 4095,4953.16"
         stroke="#00b050"
         stroke-width="13.75"
         stroke-linecap="round"
         stroke-linejoin="round"
         stroke-miterlimit="10"
         fill="none"
         id="path6367" /></g><g
       id="g6381"><path
         d="m 4803.61,4367.89 c 0,6.07 -4.93,10.99 -11,10.99 -6.08,0 -11,-4.92 -11,-10.99 0,-6.08 4.92,-11 11,-11 6.07,0 11,4.92 11,11 z"
         stroke="#00b050"
         stroke-width="3.4375"
         stroke-linejoin="round"
         stroke-miterlimit="10"
         fill="#00b050"
         id="path6371" /><path
         d="m 5491.61,4956.88 c 0,6.08 -4.93,11 -11,11 -6.08,0 -11,-4.92 -11,-11 0,-6.07 4.92,-11 11,-11 6.07,0 11,4.93 11,11 z"
         stroke="#00b050"
         stroke-width="3.4375"
         stroke-linejoin="round"
         stroke-miterlimit="10"
         fill="#00b050"
         id="path6373" /><path
         d="m 5122.61,5618.88 c 0,6.08 -4.93,11 -11,11 -6.08,0 -11,-4.92 -11,-11 0,-6.07 4.92,-11 11,-11 6.07,0 11,4.93 11,11 z"
         stroke="#00b050"
         stroke-width="3.4375"
         stroke-linejoin="round"
         stroke-miterlimit="10"
         fill="#00b050"
         id="path6375" /><path
         d="m 4324.61,5838.88 c 0,6.08 -4.93,11 -11,11 -6.08,0 -11,-4.92 -11,-11 0,-6.07 4.92,-11 11,-11 6.07,0 11,4.93 11,11 z"
         stroke="#00b050"
         stroke-width="3.4375"
         stroke-linejoin="round"
         stroke-miterlimit="10"
         fill="#00b050"
         id="path6377" /><path
         d="m 4106.61,4953.88 c 0,6.08 -4.93,11 -11,11 -6.08,0 -11,-4.92 -11,-11 0,-6.07 4.92,-11 11,-11 6.07,0 11,4.93 11,11 z"
         stroke="#00b050"
         stroke-width="3.4375"
         stroke-linejoin="round"
         stroke-miterlimit="10"
         fill="#00b050"
         id="path6379" /></g><g
       id="g6385"><text
         font-family="Calibri, Calibri_MSFontService, sans-serif"
         font-weight="400"
         font-size="64px"
         transform="translate(4694.72,5202)"
         id="text6383">0</text></g><g
       id="g6389"><text
         font-family="Calibri, Calibri_MSFontService, sans-serif"
         font-weight="400"
         font-size="64px"
         transform="translate(4662.2,5069)"
         id="text6387">10</text></g><g
       id="g6393"><text
         font-family="Calibri, Calibri_MSFontService, sans-serif"
         font-weight="400"
         font-size="64px"
         transform="translate(4662.2,4937)"
         id="text6391">20</text></g><g
       id="g6397"><text
         font-family="Calibri, Calibri_MSFontService, sans-serif"
         font-weight="400"
         font-size="64px"
         transform="translate(4662.2,4805)"
         id="text6395">30</text></g><g
       id="g6401"><text
         font-family="Calibri, Calibri_MSFontService, sans-serif"
         font-weight="400"
         font-size="64px"
         transform="translate(4662.2,4672)"
         id="text6399">40</text></g><g
       id="g6405"><text
         font-family="Calibri, Calibri_MSFontService, sans-serif"
         font-weight="400"
         font-size="64px"
         transform="translate(4662.2,4540)"
         id="text6403">50</text></g><g
       id="g6409"><text
         font-family="Calibri, Calibri_MSFontService, sans-serif"
         font-weight="400"
         font-size="64px"
         transform="translate(4662.2,4408)"
         id="text6407">60</text></g><g
       id="g6413"><text
         font-family="Calibri, Calibri_MSFontService, sans-serif"
         font-weight="400"
         font-size="64px"
         transform="translate(4662.2,4275)"
         id="text6411">70</text></g><g
       id="g6417"><text
         font-family="Calibri, Calibri_MSFontService, sans-serif"
         font-weight="400"
         font-size="64px"
         transform="translate(4662.2,4143)"
         id="text6415">80</text></g><g
       id="g6421"><text
         font-family="Calibri, Calibri_MSFontService, sans-serif"
         font-weight="400"
         font-size="83px"
         transform="translate(4620.47,4048)"
         id="text6419">Pol-Spider</text></g><g
       id="g6425"><text
         font-family="Calibri, Calibri_MSFontService, sans-serif"
         font-weight="400"
         font-size="83px"
         transform="translate(5839.23,4864)"
         id="text6423">Pol-Spidersyn</text></g><g
       id="g6429"><text
         font-family="Calibri, Calibri_MSFontService, sans-serif"
         font-weight="400"
         font-size="83px"
         transform="translate(5439.33,6095)"
         id="text6427">Pol-Spiderdk</text></g><g
       id="g6433"><text
         font-family="Calibri, Calibri_MSFontService, sans-serif"
         font-weight="400"
         font-size="83px"
         transform="translate(3830.52,6095)"
         id="text6431">Pol-Sparc</text></g><g
       id="g6437"><text
         font-family="Calibri, Calibri_MSFontService, sans-serif"
         font-weight="400"
         font-size="83px"
         transform="translate(3432.98,4864)"
         id="text6435">Pol-Cosql</text></g><g
       clip-path="url(#clip1)"
       id="g6441"><rect
         x="5577.5"
         y="5308.5"
         width="938"
         height="387"
         stroke="#7030a0"
         stroke-width="0"
         stroke-linejoin="round"
         stroke-miterlimit="10"
         fill="none"
         id="rect6439" /></g><g
       id="g6445"><path
         d="m 5656,5356 h 115"
         stroke="#ff0000"
         stroke-width="13.75"
         stroke-linecap="round"
         stroke-linejoin="round"
         stroke-miterlimit="10"
         stroke-dasharray="0, 27.5"
         fill="none"
         fill-rule="evenodd"
         id="path6443" /></g><g
       id="g6449"><path
         d="m 5724,5356 c 0,6.07 -4.92,11 -11,11 -6.08,0 -11,-4.93 -11,-11 0,-6.08 4.92,-11 11,-11 6.08,0 11,4.92 11,11 z"
         stroke="#ff0000"
         stroke-width="3.4375"
         stroke-linejoin="round"
         stroke-miterlimit="10"
         stroke-dasharray="3.4375, 3.4375"
         fill="#ff0000"
         id="path6447" /></g><g
       id="g6453"><text
         font-family="Calibri, Calibri_MSFontService, sans-serif"
         font-weight="400"
         font-size="55px"
         transform="translate(5783.76,5372)"
         id="text6451">EX (model eksperymentalny)</text></g><g
       id="g6457"><path
         d="m 5656,5453 h 115"
         stroke="#ff0000"
         stroke-width="13.75"
         stroke-linecap="round"
         stroke-linejoin="round"
         stroke-miterlimit="10"
         fill="none"
         fill-rule="evenodd"
         id="path6455" /></g><g
       id="g6461"><path
         d="m 5724,5453 c 0,6.07 -4.92,11 -11,11 -6.08,0 -11,-4.93 -11,-11 0,-6.08 4.92,-11 11,-11 6.08,0 11,4.92 11,11 z"
         stroke="#ff0000"
         stroke-width="3.4375"
         stroke-linejoin="round"
         stroke-miterlimit="10"
         fill="#ff0000"
         id="path6459" /></g><g
       id="g6465"><text
         font-family="Calibri, Calibri_MSFontService, sans-serif"
         font-weight="400"
         font-size="55px"
         transform="translate(5783.76,5469)"
         id="text6463">EX (model finalny)</text></g><g
       id="g6469"><path
         d="m 5656,5550 h 115"
         stroke="#00b050"
         stroke-width="13.75"
         stroke-linecap="round"
         stroke-linejoin="round"
         stroke-miterlimit="10"
         stroke-dasharray="0, 27.5"
         fill="none"
         fill-rule="evenodd"
         id="path6467" /></g><g
       id="g6473"><path
         d="m 5724,5549 c 0,6.07 -4.92,11 -11,11 -6.08,0 -11,-4.93 -11,-11 0,-6.08 4.92,-11 11,-11 6.08,0 11,4.92 11,11 z"
         stroke="#00b050"
         stroke-width="3.4375"
         stroke-linejoin="round"
         stroke-miterlimit="10"
         stroke-dasharray="3.4375, 3.4375"
         fill="#00b050"
         id="path6471" /></g><g
       id="g6477"><text
         font-family="Calibri, Calibri_MSFontService, sans-serif"
         font-weight="400"
         font-size="55px"
         transform="translate(5783.76,5565)"
         id="text6475">EM (model eksperymentalny)</text></g><g
       id="g6481"><path
         d="m 5656,5647 h 115"
         stroke="#00b050"
         stroke-width="13.75"
         stroke-linecap="round"
         stroke-linejoin="round"
         stroke-miterlimit="10"
         fill="none"
         fill-rule="evenodd"
         id="path6479" /></g><g
       id="g6485"><path
         d="m 5724,5646 c 0,6.07 -4.92,11 -11,11 -6.08,0 -11,-4.93 -11,-11 0,-6.08 4.92,-11 11,-11 6.08,0 11,4.92 11,11 z"
         stroke="#00b050"
         stroke-width="3.4375"
         stroke-linejoin="round"
         stroke-miterlimit="10"
         fill="#00b050"
         id="path6483" /></g><g
       id="g6489"><text
         font-family="Calibri, Calibri_MSFontService, sans-serif"
         font-weight="400"
         font-size="55px"
         transform="translate(5783.76,5662)"
         id="text6487">EM (model finalny)</text></g><rect
       x="2757.5"
       y="3908.5"
       width="3758"
       height="2490"
       stroke="#d9d9d9"
       stroke-width="0"
       stroke-linejoin="round"
       stroke-miterlimit="10"
       stroke-opacity="0"
       fill="none"
       id="rect6491" /></g></svg>
